<svg width="100" height="93" viewBox="0 0 100 93" fill="none" xmlns="http://www.w3.org/2000/svg">
<g clip-path="url(#clip0_3401_7371)">
<path d="M85.2331 62.4031C91.5076 60.9495 96.8815 56.4808 99.0399 50.1196C102.345 40.3764 96.8443 29.8847 86.7664 26.6969C76.6885 23.5019 65.8366 28.8197 62.5393 38.563L17.6578 24.3511C20.9625 14.6078 15.4621 4.11616 5.38428 0.92837C-4.69359 -2.26662 -15.5455 3.05116 -18.8428 12.7944C-21.0013 19.1556 -19.401 25.8334 -15.2329 30.5971C-21.5074 32.0507 -26.8813 36.5194 -29.0397 42.8805C-32.3445 52.6238 -26.8441 63.1155 -16.7662 66.3032C-6.68832 69.4982 4.16362 64.1805 7.46088 54.4372L52.3424 68.6491C49.0377 78.3924 54.5381 88.884 64.6159 92.0718C74.6938 95.2668 85.5457 89.949 88.843 80.2057C91.0015 73.8446 89.4012 67.1668 85.2331 62.4031Z" fill="#C2D7FF"/>
</g>
<defs>
<clipPath id="clip0_3401_7371">
<rect width="130" height="93" fill="white" transform="translate(-30)"/>
</clipPath>
</defs>
</svg>
