<svg width="58" height="58" viewBox="0 0 58 58" fill="none" xmlns="http://www.w3.org/2000/svg">
<g clip-path="url(#clip0_855_68811)">
<path d="M45.5927 17.1485H38.4816V13.5929C38.4816 12.0213 37.8572 10.514 36.7459 9.40266C35.6346 8.29133 34.1273 7.66699 32.5556 7.66699H25.4445C23.8729 7.66699 22.3656 8.29133 21.2543 9.40266C20.1429 10.514 19.5186 12.0213 19.5186 13.5929V17.1485H12.4075C10.5215 17.1485 8.71278 17.8977 7.37918 19.2313C6.04559 20.5649 5.29639 22.3736 5.29639 24.2596V43.2225C5.29639 45.1085 6.04559 46.9173 7.37918 48.2509C8.71278 49.5845 10.5215 50.3337 12.4075 50.3337H45.5927C47.4787 50.3337 49.2874 49.5845 50.621 48.2509C51.9546 46.9173 52.7038 45.1085 52.7038 43.2225V24.2596C52.7038 22.3736 51.9546 20.5649 50.621 19.2313C49.2874 17.8977 47.4787 17.1485 45.5927 17.1485ZM24.2593 13.5929C24.2593 13.2786 24.3842 12.9771 24.6065 12.7549C24.8287 12.5326 25.1302 12.4077 25.4445 12.4077H32.5556C32.87 12.4077 33.1714 12.5326 33.3937 12.7549C33.616 12.9771 33.7408 13.2786 33.7408 13.5929V17.1485H24.2593V13.5929ZM47.9631 43.2225C47.9631 43.8512 47.7133 44.4541 47.2688 44.8987C46.8243 45.3432 46.2213 45.5929 45.5927 45.5929H12.4075C11.7788 45.5929 11.1759 45.3432 10.7314 44.8987C10.2869 44.4541 10.0371 43.8512 10.0371 43.2225V24.2596C10.0371 23.6309 10.2869 23.028 10.7314 22.5835C11.1759 22.1389 11.7788 21.8892 12.4075 21.8892H45.5927C46.2213 21.8892 46.8243 22.1389 47.2688 22.5835C47.7133 23.028 47.9631 23.6309 47.9631 24.2596V43.2225Z" fill="#95BCFF"/>
<path d="M28.9999 25.4443C27.3591 25.4443 25.7551 25.9309 24.3907 26.8425C23.0264 27.7541 21.9631 29.0498 21.3351 30.5658C20.7072 32.0817 20.5429 33.7498 20.863 35.3592C21.1831 36.9685 21.9733 38.4467 23.1335 39.607C24.2938 40.7673 25.7721 41.5574 27.3814 41.8775C28.9907 42.1976 30.6588 42.0333 32.1748 41.4054C33.6907 40.7775 34.9864 39.7141 35.898 38.3498C36.8096 36.9855 37.2962 35.3815 37.2962 33.7406C37.2962 31.5403 36.4221 29.4301 34.8663 27.8743C33.3104 26.3184 31.2002 25.4443 28.9999 25.4443ZM28.9999 37.2962C28.2967 37.2962 27.6093 37.0877 27.0246 36.697C26.4398 36.3063 25.9841 35.751 25.715 35.1013C25.4459 34.4516 25.3755 33.7367 25.5127 33.047C25.6499 32.3573 25.9885 31.7237 26.4858 31.2265C26.983 30.7292 27.6165 30.3906 28.3063 30.2534C28.996 30.1162 29.7109 30.1866 30.3606 30.4557C31.0103 30.7248 31.5656 31.1806 31.9563 31.7653C32.3469 32.35 32.5555 33.0374 32.5555 33.7406C32.5555 34.6836 32.1809 35.588 31.5141 36.2548C30.8473 36.9216 29.9429 37.2962 28.9999 37.2962Z" fill="#95BCFF"/>
</g>
<defs>
<clipPath id="clip0_855_68811">
<rect width="56.8889" height="56.8889" fill="white" transform="translate(0.555664 0.555664)"/>
</clipPath>
</defs>
</svg>
