<svg width="120" height="120" viewBox="0 0 120 120" fill="none" xmlns="http://www.w3.org/2000/svg">
<g clip-path="url(#clip0_3640_6120)">
<path d="M60 10C50.111 10 40.444 12.9324 32.2215 18.4265C23.9991 23.9206 17.5904 31.7295 13.806 40.8658C10.0217 50.0021 9.0315 60.0555 10.9608 69.7545C12.89 79.4536 17.6521 88.3627 24.6447 95.3553C31.6373 102.348 40.5465 107.11 50.2455 109.039C59.9446 110.969 69.9979 109.978 79.1342 106.194C88.2705 102.41 96.0794 96.001 101.573 87.7785C107.068 79.5561 110 69.8891 110 60C110 53.4339 108.707 46.9321 106.194 40.8658C103.681 34.7995 99.9983 29.2876 95.3554 24.6447C90.7124 20.0017 85.2005 16.3188 79.1342 13.806C73.0679 11.2933 66.5661 10 60 10ZM60 100C52.0888 100 44.3552 97.654 37.7772 93.2588C31.1992 88.8635 26.0723 82.6164 23.0448 75.3073C20.0173 67.9983 19.2252 59.9556 20.7686 52.1964C22.312 44.4371 26.1217 37.3098 31.7158 31.7157C37.3099 26.1216 44.4372 22.312 52.1964 20.7686C59.9557 19.2252 67.9983 20.0173 75.3074 23.0448C82.6164 26.0723 88.8635 31.1992 93.2588 37.7772C97.6541 44.3552 100 52.0887 100 60C100 70.6087 95.7858 80.7828 88.2843 88.2843C80.7828 95.7857 70.6087 100 60 100Z" fill="#0FA18D"/>
<path d="M73.5 41.9489L54.6 66.9489L46.45 56.3989C45.6344 55.3513 44.4361 54.6706 43.1187 54.5065C41.8012 54.3424 40.4726 54.7084 39.425 55.5239C38.3774 56.3395 37.6966 57.5378 37.5325 58.8552C37.3684 60.1727 37.7344 61.5013 38.55 62.5489L50.7 78.0989C51.1708 78.6948 51.7713 79.1756 52.4557 79.5048C53.1401 79.834 53.8905 80.003 54.65 79.9989C55.4136 79.9971 56.1666 79.8204 56.8513 79.4824C57.536 79.1443 58.1342 78.654 58.6 78.0489L81.45 48.0489C82.2589 46.9881 82.6132 45.6493 82.4351 44.3272C82.2569 43.005 81.5608 41.8078 80.5 40.9989C79.4391 40.19 78.1004 39.8357 76.7782 40.0138C75.4561 40.192 74.2589 40.8881 73.45 41.9489H73.5Z" fill="#0FA18D"/>
</g>
<defs>
<clipPath id="clip0_3640_6120">
<rect width="120" height="120" fill="white"/>
</clipPath>
</defs>
</svg>
