<svg xmlns="http://www.w3.org/2000/svg" width="223" height="240" fill="none" viewBox="0 0 223 240">
  <g clip-path="url(#a)">
    <path fill="#37F" d="M9.506 12.468c.542 2.073.111 3.906-1.317 5.498-.757.843-1.652 1.342-2.831 1.161a.135.135 0 0 0-.138-.026c-.086-.137-.198-.197-.344-.086-.662-.585-1.48-.912-2.289-1.23C1.4 17.329.892 16.383.815 15.229c-.147-2.09.662-3.802 2.366-5.033.723-.525 1.532-.662 2.384-.232.61.3 1.23.593 1.858.843.87.344 1.592.86 2.083 1.66Z"/>
    <path stroke="#37F" stroke-miterlimit="10" stroke-width="2.47" d="M85.546 67.113c-.327 3.002-.594 6.005-.628 9.034-.06 5.025.49 9.946 2.366 14.644 1.076 2.693 2.633 5.111 4.389 7.417 4.423 5.825 10.05 10.308 15.996 14.455 4.784 3.339 9.801 6.298 14.835 9.232 7.942 4.638 16.082 8.975 23.697 14.163 6.661 4.534 12.4 10.024 17.141 16.537 2.84 3.906 5.241 8.062 7.073 12.545.783 1.919 1.429 3.872 2.031 5.851.938 3.072 1.902 6.143 3.941 8.724.8 1.007 1.687 1.945 2.943 2.384 2.151.748 3.967 0 5.567-1.377 2.392-2.065 3.855-4.767 4.974-7.666 1.919-4.973 2.633-10.101 1.884-15.393-.189-1.368-.525-2.719-.86-4.061-1.127-4.569-1.945-9.198-2.625-13.853-.654-4.534-1.032-9.077-.791-13.655.198-3.657.705-7.262 2.443-10.574 1.988-3.786 5.249-5.438 9.38-5.61 4.078-.172 7.864.963 11.461 2.77 3.382 1.695 6.368 3.889 8.553 7.03 1.171 1.686 1.885 3.562 1.713 5.67-.146 1.755-1.076 2.926-2.719 3.528-2.797 1.024-5.671.843-8.553.576-2.091-.198-4.131-.654-6.402-1.29.937 1.032 1.738 1.85 2.469 2.727 2.582 3.106 4.724 6.471 5.688 10.446.439 1.815.516 3.656-1.136 5.033-1.127.938-2.504.964-3.872.921-1.816-.052-3.545-.551-5.275-1.041-.387-.112-.774-.233-1.222-.37.035.464.327.688.542.938 1.954 2.331 3.649 4.835 4.664 7.709.8 2.271 1.222 4.638.448 7.038-.499 1.54-1.876 2.943-3.812 2.624-.336-.06-.551-.034-.388.396 2.152 5.653.457 10.79-2.331 15.668-2.444 4.277-5.783 7.753-10.206 10.093-4.01 2.125-8.14 2.65-12.408.852-.748-.318-1.437-.783-2.108-1.239-.439-.293-.577-.241-.68.275-.585 2.908-.12 5.679 1.076 8.355 1.445 3.235 3.838 5.782 6.144 8.389 1.419 1.609 2.899 3.183 4.07 4.999 2.805 4.345 2.745 8.51.172 13.009-2.943 5.146-7.383 8.665-12.58 11.281-2.763 1.393-5.705 2.323-8.881 2.013-1.359-.129-2.59-.577-3.571-1.6-.559-.586-.593-1.179-.215-1.859.37-.662.981-1.084 1.566-1.523 2.169-1.6 4.63-2.745 6.893-4.199 1.841-1.178 3.562-2.504 5.12-4.035a8.258 8.258 0 0 0 1.669-2.306c.912-1.902.671-3.519-.714-5.137-1.36-1.583-3.193-2.323-5.103-2.934-2.702-.869-5.498-1.351-8.235-2.091-4.457-1.204-8.647-2.934-11.857-6.384-3.39-3.639-5.369-7.95-5.722-12.949-.052-.688-.215-.723-.766-.387-2.625 1.591-4.974 3.519-6.987 5.842-2.203 2.538-2.582 5.55-2.212 8.742.224 1.944.491 3.88.663 5.825.344 3.872-1.076 6.952-4.173 9.301-2.47 1.867-5.155 3.313-8.011 4.491-2.892 1.188-5.869 1.996-8.975 2.272-1.652.146-3.313.155-4.914-.499-1.084-.439-1.901-1.145-2.418-2.194-.568-1.162-.189-2.341 1.076-3.149.706-.456 1.463-.852 2.272-1.093 2.4-.723 4.81-1.403 7.193-2.168 1.549-.499 3.081-1.085 4.483-1.928 1.136-.679 2.152-1.514 2.737-2.727 1.196-2.47.568-4.621-1.781-6.436-1.558-1.205-3.296-2.125-4.94-3.192-3.192-2.057-5.369-4.827-6.143-8.587-.517-2.496-.207-4.922.808-7.262 1.403-3.235 3.675-5.774 6.42-7.907 3.003-2.341 6.307-4.122 9.878-5.456 2.358-.886 4.767-1.497 7.237-1.935.877-.155.929-.302.438-1.128-4.896-8.088-11.16-14.833-19.24-19.875-4.397-2.736-8.828-5.412-13.492-7.667-4.268-2.056-8.614-3.94-12.933-5.902-4.07-1.85-8.063-3.855-11.918-6.109-3.58-2.091-7.073-4.302-10.352-6.849-1.204-.938-2.349-1.945-3.519-2.925-.267-.224-.516-.448-.92-.448-4.604-.017-9.2-.258-13.786-.542-3.21-.198-5.808.938-8.295 2.753-2.84 2.083-5.43 4.449-8.157 6.66-2.108 1.712-4.139 3.536-6.54 4.861-.473.259-.955.534-1.454.74-1.712.706-4.199-.817-4.5-2.675-.241-1.48.215-2.797.817-4.096 1.437-3.08 3.64-5.61 5.852-8.131 1.772-2.031 3.553-4.061 5.43-5.997 2.133-2.203 4.766-3.674 7.64-4.715 3.545-1.282 7.228-2.014 10.92-2.668.103-.017.215-.043.318-.068.542-.104.878-.198.473-.912-1.385-2.444-2.426-5.051-3.304-7.71-1.66-5.016-2.246-10.178-1.652-15.453.069-.602-.017-1.101-.361-1.617-1.274-1.893-2.134-4.027-3.425-5.92-3.45-5.042-8.27-6.797-14.18-5.997-2.866.387-5.646 1.144-8.45 1.807-1.636.387-3.288.714-5 .628-2.685-.138-4.096-1.833-4.698-4.044-.233-.86.129-1.6.662-2.272 1.274-1.6 3.038-2.538 4.819-3.407 2.581-1.256 5.31-2.108 8.054-2.917a48.47 48.47 0 0 1 7.822-1.583c2.495-.301 4.896.25 7.228.972 4.053 1.257 7.796 3.21 11.41 5.421.576.353 1.187.671 1.781 1.007.241.137.43.206.602-.104 1.334-2.503 2.263-3.751 3.735-6.169 4.474 3.296 10.222 4.036 15.652 4.982 4.337.757 8.7.792 13.062.318v.018Z" opacity=".44"/>
    <path stroke="#37F" stroke-miterlimit="10" stroke-width="2.47" d="M44.312 8.045c2.022-.8 3.906-1.884 5.834-2.883 3.837-1.987 7.882-3.174 12.184-3.777 5.654-.783 10.36 1.282 14.92 4.147 5.302 3.33 9.948 7.503 14.81 11.392 5.834 4.664 12.382 7.495 19.739 8.648 6.488 1.024 12.985.929 19.516.593 5.017-.258 10.016-.98 15.041-.972 5.077 0 9.732 1.42 13.69 4.75 3.15 2.65 3.666 6.246 1.3 9.61-2.031 2.883-4.793 4.879-7.994 6.324-6.359 2.866-13.071 3.046-19.843 2.607-6.419-.421-12.795-1.196-19.068-2.684-4.913-1.17-9.655-2.822-14.275-4.853a73.124 73.124 0 0 1-7.882-4.044c-.224-.137-.525-.49-.75-.25-.292.31-.016.646.233.93a65.553 65.553 0 0 0 7.9 7.787 61.727 61.727 0 0 0 16.633 9.99c4.388 1.763 9.009 2.71 13.621 3.665 5.593 1.153 11.238 2.108 16.676 3.906 3.683 1.213 7.245 2.736 10.162 5.395 2.332 2.125 3.941 4.594 3.305 7.959-.456 2.417-2.014 4.087-3.907 5.498-2.805 2.1-6.058 2.882-9.474 3.071-6.307.345-12.408-.783-18.423-2.572-5.128-1.523-10.059-3.485-14.602-6.359-5.74-3.63-10.593-8.225-14.731-13.612-2.866-3.734-5.456-7.649-7.71-11.787-.07-.138-.198-.241-.44-.517-.37 3.227-.722 6.282-1.075 9.336-.19.052-.37.129-.56.155-3.923.542-7.855.61-11.788.138-6.643-.81-12.924-2.65-18.388-6.695.026-.017.06-.025.086-.051 1.815-2.229 2.1-7.968.542-10.411-1.17-1.833-2.943-2.77-4.948-3.382-2.47-.757-4.99-.688-7.53-.525-4.396.276-8.793.723-13.208.758-2.443.017-4.861-.172-7.202-.99-.86-.301-1.557-.774-2.082-1.523-.774-1.101-.577-1.807.697-2.185 2.34-.697 4.784-.843 7.193-1.127 4.862-.586 9.741-1.153 14.31-3.072 2.496-1.05 4.716-2.495 5.628-5.283.318-.972.327-1.962.275-2.977-.034-.68-.318-.68-.791-.456-1.739.826-3.589 1.316-5.421 1.841-6.841 1.962-13.811 2.564-20.893 2.014-4.784-.37-9.457-1.3-13.983-2.891a25.715 25.715 0 0 1-5.74-2.857c-.283-.19-.662-.318-.627-.783 1.179.19 2.073-.318 2.83-1.162 1.438-1.591 1.868-3.433 1.317-5.498 4.363.31 8.726.8 13.114.62 5.128-.215 10.205-.8 15.093-2.513.628-.154 1.187.198 1.79.259 2.942.284 4.605-2.72 4.896-2.728v.026Z" opacity=".44"/>
    <path fill="#37F" d="M57.976 53.045c5.464 4.052 11.746 5.885 18.389 6.694 3.932.482 7.865.413 11.788-.138.19-.026.37-.103.56-.155.387-.051.766-.094 1.153-.155 1.566-.275 2.693.517 2.917 2.074.224 1.54-.155 2.951-1.033 4.242-.714 1.058-1.841 1.23-2.968 1.42-.319.051-.637.111-.947.171-5.197.663-10.395.706-15.583-.111-6.497-1.016-12.58-3.098-17.984-6.935-.551-.448-1.084-.912-1.653-1.343-.963-.74-1.299-1.712-1.161-2.9.19-1.608.8-2.985 2.082-4.009 1.084-.86 1.98-.826 3.064.043.456.362.912.723 1.36 1.085l.016.017ZM44.914 9.24c-.697 2.332-1.953 3.012-4.896 2.728-.602-.06-1.162-.413-1.79-.258-.774-.456-1.575-.869-2.323-1.368-1.033-.688-1.11-2.074-.224-3.338.774-1.119 1.575-1.291 2.71-.542 1.274.843 2.65 1.187 4.148.894 2.005-.387 2.323-.154 2.366 1.885h.009Zm16.074 8.82c-2.151.293-4.389.18-6.566-.61-1.187-.43-2.331-.973-3.39-1.67-1.05-.688-1.205-1.833-.413-3.14.714-1.17 1.695-1.48 2.762-.818 2.461 1.54 5.103 2.117 7.986 1.747 1.015-.13 1.41.198 1.617 1.222.284 1.402-.525 2.805-1.979 3.27h-.017Z"/>
  </g>
  <defs>
    <clipPath id="a">
      <path fill="#fff" d="M0 0h221.471v239.583H0z" transform="translate(.797)"/>
    </clipPath>
  </defs>
</svg>
