<svg width="44" height="43" viewBox="0 0 44 43" fill="none" xmlns="http://www.w3.org/2000/svg">
<path d="M32.75 5.375H11.25C9.82446 5.375 8.45731 5.94129 7.4493 6.9493C6.44129 7.95731 5.875 9.32446 5.875 10.75V32.25C5.875 33.6755 6.44129 35.0427 7.4493 36.0507C8.45731 37.0587 9.82446 37.625 11.25 37.625H32.75C34.1755 37.625 35.5427 37.0587 36.5507 36.0507C37.5587 35.0427 38.125 33.6755 38.125 32.25V10.75C38.125 9.32446 37.5587 7.95731 36.5507 6.9493C35.5427 5.94129 34.1755 5.375 32.75 5.375ZM11.25 8.95833H32.75C33.2252 8.95833 33.6809 9.1471 34.0169 9.4831C34.3529 9.8191 34.5417 10.2748 34.5417 10.75V25.7283L28.8083 20.8371C27.92 20.1062 26.8054 19.7065 25.655 19.7065C24.5046 19.7065 23.39 20.1062 22.5017 20.8371L9.45833 31.7125V10.75C9.45833 10.2748 9.6471 9.8191 9.9831 9.4831C10.3191 9.1471 10.7748 8.95833 11.25 8.95833ZM32.75 34.0417H12.2533L24.795 23.5783C25.0359 23.3994 25.328 23.3028 25.6281 23.3028C25.9282 23.3028 26.2203 23.3994 26.4612 23.5783L34.5417 30.4583V32.25C34.5417 32.7252 34.3529 33.1809 34.0169 33.5169C33.6809 33.8529 33.2252 34.0417 32.75 34.0417Z" fill="#95BCFF"/>
<path d="M14.8335 17.917C16.3178 17.917 17.521 16.7138 17.521 15.2295C17.521 13.7452 16.3178 12.542 14.8335 12.542C13.3492 12.542 12.146 13.7452 12.146 15.2295C12.146 16.7138 13.3492 17.917 14.8335 17.917Z" fill="#95BCFF"/>
</svg>
