<svg width="24" height="25" viewBox="0 0 24 25" fill="none" xmlns="http://www.w3.org/2000/svg">
<path d="M7.51586 9.66997C6.75724 9.66843 6.01151 9.88075 5.35304 10.2858L5.31027 10.3078C5.18834 10.3901 5.07069 10.4795 4.95786 10.5757C4.87418 10.6407 4.78305 10.6947 4.70494 10.7676C4.69658 10.7756 4.691 10.7856 4.6817 10.7936C4.62126 10.8516 4.57384 10.9206 4.51712 10.9816C4.19835 11.3116 3.94377 11.7065 3.76818 12.1433C3.59259 12.5801 3.49949 13.05 3.49429 13.5258V18.3103C3.55639 19.3932 4.0138 20.4059 4.76696 21.128C5.52013 21.8501 6.5081 22.2232 7.51586 22.1661C8.52393 22.2237 9.51237 21.8509 10.2659 21.1287C11.0195 20.4066 11.4772 19.3935 11.5393 18.3103V13.5258C11.5342 12.9978 11.4231 12.4773 11.2135 11.9999C11.0039 11.5225 10.7008 11.0994 10.3249 10.7596C9.54074 10.0454 8.54356 9.65856 7.51586 9.66997ZM7.51586 20.6665C7.03877 20.6841 6.5659 20.5651 6.14556 20.3219C5.72522 20.0786 5.37248 19.7198 5.12337 19.282C5.14383 19.296 5.16801 19.306 5.18939 19.3189C5.24704 19.3549 5.30934 19.3849 5.36978 19.4189C5.51338 19.4996 5.66116 19.5713 5.81239 19.6338C5.8877 19.6648 5.96488 19.6928 6.04392 19.7198C6.20369 19.7732 6.36603 19.8172 6.53022 19.8518C6.60554 19.8688 6.679 19.8878 6.75618 19.9008C7.25901 19.9887 7.77177 19.9887 8.27461 19.9008C8.35271 19.8878 8.42524 19.8688 8.50149 19.8518C8.66566 19.8171 8.82799 19.7731 8.9878 19.7198C9.06683 19.6928 9.14308 19.6648 9.21933 19.6338C9.37033 19.5715 9.5178 19.4998 9.661 19.4189C9.72144 19.3849 9.78374 19.3549 9.84697 19.3189C9.86743 19.306 9.89253 19.296 9.91299 19.282C9.66349 19.7205 9.31001 20.0799 8.88878 20.3232C8.46755 20.5665 7.99372 20.685 7.51586 20.6665ZM7.51586 18.4672C6.0495 18.4672 4.94391 17.5615 4.89742 16.3519C5.6654 16.9259 6.58059 17.2284 7.51586 17.2176C8.45128 17.2286 9.36658 16.9256 10.1343 16.3509C10.0878 17.5615 8.98129 18.4672 7.51586 18.4672ZM9.8916 14.4945C9.6234 14.8969 9.26505 15.2201 8.84975 15.434C8.43445 15.6479 7.97564 15.7456 7.51586 15.7181C7.05573 15.7457 6.59656 15.6479 6.18104 15.4336C5.76552 15.2193 5.40713 14.8956 5.13918 14.4925C4.97322 14.2018 4.88655 13.8668 4.88905 13.5258C4.88854 13.372 4.90477 13.2186 4.93741 13.0689C4.95135 13.0059 4.97832 12.9469 4.99784 12.886C5.02097 12.8008 5.04988 12.7176 5.08432 12.637C5.12315 12.5591 5.16663 12.484 5.2145 12.4121C5.2489 12.3551 5.27773 12.2962 5.31678 12.2422C5.38488 12.1539 5.45851 12.0707 5.53715 11.9932C5.56877 11.9603 5.59573 11.9243 5.63014 11.8933C5.73065 11.8025 5.8376 11.7203 5.95 11.6474C5.97883 11.6284 6.003 11.6044 6.03276 11.5854C6.13063 11.529 6.23154 11.4789 6.33496 11.4354C6.38703 11.4114 6.43538 11.3804 6.49024 11.3594C6.5451 11.3385 6.59531 11.3325 6.64645 11.3155C6.92823 11.2222 7.22104 11.173 7.51586 11.1695C8.20624 11.1585 8.87736 11.4142 9.40715 11.8903C9.6322 12.0899 9.81457 12.3393 9.94182 12.6215C10.0691 12.9038 10.1382 13.2122 10.1445 13.5258C10.1459 13.8677 10.0583 14.2032 9.8916 14.4945ZM21.0702 8.80824V7.92052C21.1487 6.52505 20.7195 5.15143 19.8732 4.08996C19.027 3.02849 17.83 2.36235 16.5353 2.23231C16.2667 2.18859 15.9952 2.16853 15.7236 2.17233H7.35499C7.07492 2.17155 6.79519 2.19327 6.51814 2.23731C5.2299 2.37676 4.04156 3.04582 3.20124 4.10481C2.36091 5.1638 1.93356 6.53085 2.0084 7.92052V9.9199C2.0084 10.1187 2.08188 10.3095 2.21266 10.4501C2.34345 10.5907 2.52083 10.6697 2.70578 10.6697C2.89074 10.6697 3.06812 10.5907 3.19891 10.4501C3.32969 10.3095 3.40317 10.1187 3.40317 9.9199V7.92052C3.33283 6.89465 3.63973 5.88007 4.25787 5.09492C4.87602 4.30977 5.75605 3.81674 6.70875 3.72184C6.92268 3.68764 7.13871 3.67093 7.35499 3.67186H15.7236C15.9299 3.66808 16.1361 3.68313 16.3401 3.71684C17.2993 3.80306 18.1879 4.29318 18.8126 5.0805C19.4373 5.86781 19.7474 6.88857 19.6754 7.92052V8.6203H18.4387C18.0785 8.6223 17.7226 8.70432 17.3932 8.86123C17.0639 9.01813 16.7683 9.24652 16.5249 9.53207C16.2816 9.81763 16.0958 10.1542 15.9792 10.5206C15.8625 10.887 15.8176 11.2754 15.8472 11.6613C15.921 12.3728 16.2388 13.0291 16.7387 13.502C17.2386 13.9749 17.8845 14.2304 18.5503 14.2185H19.6754V14.9183C19.7123 15.4865 19.6354 16.0566 19.4499 16.5901C19.2644 17.1235 18.9745 17.608 18.5999 18.0107C18.2253 18.4135 17.7747 18.7251 17.2785 18.9246C16.7823 19.124 16.252 19.2067 15.7236 19.167H13.399C13.214 19.167 13.0366 19.246 12.9058 19.3866C12.7751 19.5272 12.7016 19.7179 12.7016 19.9168C12.7016 20.1156 12.7751 20.3063 12.9058 20.4469C13.0366 20.5875 13.214 20.6665 13.399 20.6665H15.7236C16.4365 20.711 17.1501 20.5927 17.8175 20.3196C18.4849 20.0464 19.091 19.6245 19.596 19.0816C20.101 18.5387 20.4934 17.8871 20.7474 17.1696C21.0015 16.452 21.1115 15.6848 21.0702 14.9183V14.0356C21.3486 13.8924 21.5837 13.6675 21.7482 13.3867C21.9127 13.106 22 12.7809 22 12.4491V10.3897C21.9999 10.0586 21.9125 9.73425 21.748 9.45433C21.5834 9.17441 21.3484 8.95038 21.0702 8.80824ZM20.6052 12.4491C20.6048 12.5172 20.5807 12.5826 20.5377 12.6325C20.4947 12.6824 20.4359 12.7133 20.3728 12.719H18.5503C18.2336 12.7284 17.9247 12.6122 17.6825 12.3927C17.4402 12.1732 17.2815 11.8656 17.2364 11.5284C17.2204 11.3372 17.2449 11.1446 17.308 10.9651C17.3711 10.7855 17.4713 10.6237 17.6009 10.4917C17.7099 10.3723 17.8402 10.2778 17.984 10.2139C18.1278 10.15 18.2822 10.118 18.4378 10.1198H20.3477C20.4147 10.1201 20.479 10.1484 20.5269 10.1988C20.5749 10.2492 20.6026 10.3177 20.6043 10.3897L20.6052 12.4491Z" fill="#8FB5F5"/>
</svg>
