<svg width="27" height="27" viewBox="0 0 27 27" fill="none" xmlns="http://www.w3.org/2000/svg">
<path d="M24.5 4.56318C24.5 3.24446 23.4272 2.17188 22.1087 2.17188C20.9537 2.17188 19.9876 2.99482 19.7655 4.08492H7.23444C7.01236 2.99482 6.0465 2.17188 4.8915 2.17188C3.57279 2.17188 2.50022 3.24446 2.50022 4.56318C2.50022 5.34456 2.87689 6.03953 3.45813 6.47622C2.87689 6.91268 2.50022 7.60766 2.50022 8.38927C2.50022 9.42752 3.16926 10.3042 4.09565 10.6341L2.58055 12.9068C2.48247 13.0537 2.47336 13.2422 2.5565 13.3975C2.63987 13.553 2.80193 13.6501 2.97847 13.6501H4.41324V23.2154H2.97847C2.71436 23.2154 2.50022 23.429 2.50022 23.6936C2.50022 23.958 2.71436 24.1719 2.97847 24.1719H24.0217C24.2856 24.1719 24.5 23.958 24.5 23.6936C24.5 23.429 24.2856 23.2154 24.0217 23.2154H22.587V13.6501H24.0217C24.198 13.6501 24.3603 13.553 24.4435 13.3975C24.5266 13.2422 24.5175 13.0532 24.4197 12.9068L22.9043 10.6341C23.8307 10.3042 24.5 9.42752 24.5 8.38927C24.5 7.60766 24.1231 6.91268 23.5418 6.47622C24.1231 6.03953 24.5 5.34456 24.5 4.56318ZM5.16355 10.7565C6.19409 10.6384 7.03057 9.86982 7.23491 8.86753H10.9012L8.60545 12.6936H3.87217L5.16355 10.7565ZM16.0988 8.86753L18.3945 12.6936H13.0217L13.0218 8.86753H16.0988ZM13.0217 12.6936H8.60545L10.9012 8.86753H13.0218L13.0217 12.6936ZM10.1523 18.911V19.3893H5.36975V17.4762H10.4797C10.2723 17.9117 10.1523 18.3972 10.1523 18.911ZM5.36975 20.3458H10.1523V23.2154H5.36975V20.3458ZM11.1088 23.2154V18.911C11.1088 17.5923 12.1814 16.5197 13.5001 16.5197C14.8186 16.5197 15.8914 17.5923 15.8914 18.911V23.2154H11.1088ZM21.6305 19.3893H16.8479V18.911C16.8479 18.3972 16.7279 17.9117 16.5203 17.4762H21.6305V19.3893ZM16.8479 23.2154V20.3458H21.6305V23.2154H16.8479ZM21.6305 16.5197H15.8381C15.2342 15.9289 14.4092 15.5632 13.5001 15.5632C12.5908 15.5632 11.7655 15.9289 11.1618 16.5197H5.36975V13.6501H21.6305V16.5197ZM18.3945 12.6936L16.0988 8.86753H19.7651C19.9694 9.86982 20.8054 10.6379 21.8364 10.7565L23.1278 12.6936H18.3945ZM22.1087 5.99796C21.8446 5.99796 21.6305 6.21164 21.6305 6.47622C21.6305 6.74057 21.8446 6.95448 22.1087 6.95448C22.8997 6.95448 23.5435 7.59808 23.5435 8.38927C23.5435 9.18022 22.8997 9.82405 22.1087 9.82405C21.3175 9.82405 20.6739 9.18022 20.6739 8.38927C20.6739 8.12468 20.4596 7.91101 20.1957 7.91101H6.80452C6.54041 7.91101 6.32627 8.12468 6.32627 8.38927C6.32627 9.18022 5.68244 9.82405 4.8915 9.82405C4.10032 9.82405 3.45673 9.18022 3.45673 8.38927C3.45673 7.59808 4.10032 6.95448 4.8915 6.95448C5.15538 6.95448 5.36975 6.74057 5.36975 6.47622C5.36975 6.21164 5.15538 5.99796 4.8915 5.99796C4.10032 5.99796 3.45673 5.35413 3.45673 4.56318C3.45673 3.77199 4.10032 3.1284 4.8915 3.1284C5.68244 3.1284 6.32627 3.77199 6.32627 4.56318C6.32627 4.82753 6.54041 5.04144 6.80452 5.04144H20.1957C20.4596 5.04144 20.6739 4.82753 20.6739 4.56318C20.6739 3.77199 21.3175 3.1284 22.1087 3.1284C22.8997 3.1284 23.5435 3.77199 23.5435 4.56318C23.5435 5.35413 22.8997 5.99796 22.1087 5.99796Z" fill="#8FB5F5"/>
</svg>
