<svg width="26" height="26" viewBox="0 0 26 26" fill="none" xmlns="http://www.w3.org/2000/svg">
<path d="M24 4.3913C24 3.07258 22.9272 2 21.6087 2C20.4537 2 19.4876 2.82294 19.2655 3.91304H6.73444C6.51236 2.82294 5.5465 2 4.3915 2C3.07279 2 2.00022 3.07258 2.00022 4.3913C2.00022 5.17268 2.37689 5.86765 2.95813 6.30435C2.37689 6.74081 2.00022 7.43578 2.00022 8.21739C2.00022 9.25565 2.66926 10.1323 3.59565 10.4623L2.08055 12.7349C1.98247 12.8818 1.97336 13.0703 2.0565 13.2256C2.13987 13.3811 2.30193 13.4783 2.47847 13.4783H3.91324V23.0435H2.47847C2.21436 23.0435 2.00022 23.2572 2.00022 23.5217C2.00022 23.7861 2.21436 24 2.47847 24H23.5217C23.7856 24 24 23.7861 24 23.5217C24 23.2572 23.7856 23.0435 23.5217 23.0435H22.087V13.4783H23.5217C23.698 13.4783 23.8603 13.3811 23.9435 13.2256C24.0266 13.0703 24.0175 12.8814 23.9197 12.7349L22.4043 10.4623C23.3307 10.1323 24 9.25565 24 8.21739C24 7.43578 23.6231 6.74081 23.0418 6.30435C23.6231 5.86765 24 5.17268 24 4.3913ZM4.66355 10.5846C5.69409 10.4665 6.53057 9.69794 6.73491 8.69565H10.4012L8.10545 12.5217H3.37217L4.66355 10.5846ZM15.5988 8.69565L17.8945 12.5217H12.5217L12.5218 8.69565H15.5988ZM12.5217 12.5217H8.10545L10.4012 8.69565H12.5218L12.5217 12.5217ZM9.65231 18.7391V19.2174H4.86975V17.3043H9.97971C9.77234 17.7399 9.65231 18.2254 9.65231 18.7391ZM4.86975 20.1739H9.65231V23.0435H4.86975V20.1739ZM10.6088 23.0435V18.7391C10.6088 17.4204 11.6814 16.3478 13.0001 16.3478C14.3186 16.3478 15.3914 17.4204 15.3914 18.7391V23.0435H10.6088ZM21.1305 19.2174H16.3479V18.7391C16.3479 18.2254 16.2279 17.7399 16.0203 17.3043H21.1305V19.2174ZM16.3479 23.0435V20.1739H21.1305V23.0435H16.3479ZM21.1305 16.3478H15.3381C14.7343 15.757 13.9092 15.3913 13.0001 15.3913C12.0908 15.3913 11.2655 15.757 10.6618 16.3478H4.86975V13.4783H21.1305V16.3478ZM17.8945 12.5217L15.5988 8.69565H19.2651C19.4694 9.69794 20.3054 10.466 21.3364 10.5846L22.6278 12.5217H17.8945ZM21.6087 5.82609C21.3446 5.82609 21.1305 6.03976 21.1305 6.30435C21.1305 6.5687 21.3446 6.78261 21.6087 6.78261C22.3997 6.78261 23.0435 7.42621 23.0435 8.21739C23.0435 9.00834 22.3997 9.65217 21.6087 9.65217C20.8175 9.65217 20.1739 9.00834 20.1739 8.21739C20.1739 7.95281 19.9596 7.73913 19.6957 7.73913H6.30452C6.04041 7.73913 5.82627 7.95281 5.82627 8.21739C5.82627 9.00834 5.18244 9.65217 4.3915 9.65217C3.60032 9.65217 2.95673 9.00834 2.95673 8.21739C2.95673 7.42621 3.60032 6.78261 4.3915 6.78261C4.65538 6.78261 4.86975 6.5687 4.86975 6.30435C4.86975 6.03976 4.65538 5.82609 4.3915 5.82609C3.60032 5.82609 2.95673 5.18226 2.95673 4.3913C2.95673 3.60012 3.60032 2.95652 4.3915 2.95652C5.18244 2.95652 5.82627 3.60012 5.82627 4.3913C5.82627 4.65566 6.04041 4.86957 6.30452 4.86957H19.6957C19.9596 4.86957 20.1739 4.65566 20.1739 4.3913C20.1739 3.60012 20.8175 2.95652 21.6087 2.95652C22.3997 2.95652 23.0435 3.60012 23.0435 4.3913C23.0435 5.18226 22.3997 5.82609 21.6087 5.82609Z" fill="#FBFBFB"/>
</svg>
