<svg width="28" height="27" viewBox="0 0 28 27" fill="none" xmlns="http://www.w3.org/2000/svg">
<path d="M5.99586 18.0294C5.75037 20.9936 7.98027 23.4141 10.9467 23.4141H15.8463C19.181 23.4141 21.4722 20.7166 20.9199 17.4141C20.3368 13.9474 17.0022 11.1064 13.4937 11.1064C9.6885 11.1064 6.31296 14.2243 5.99586 18.0294ZM12.1946 8.54227C12.8728 8.54227 13.5233 8.27212 14.0028 7.79126C14.4824 7.3104 14.7518 6.65821 14.7518 5.97817C14.7518 5.29812 14.4824 4.64593 14.0028 4.16507C13.5233 3.68421 12.8728 3.41406 12.1946 3.41406C11.5164 3.41406 10.8659 3.68421 10.3864 4.16507C9.90678 4.64593 9.63736 5.29812 9.63736 5.97817C9.63736 6.65821 9.90678 7.3104 10.3864 7.79126C10.8659 8.27212 11.5164 8.54227 12.1946 8.54227ZM19.181 9.77304C19.7235 9.77304 20.2439 9.55692 20.6275 9.17223C21.0112 8.78754 21.2267 8.26579 21.2267 7.72175C21.2267 7.17772 21.0112 6.65597 20.6275 6.27128C20.2439 5.88659 19.7235 5.67047 19.181 5.67047C18.6384 5.67047 18.118 5.88659 17.7344 6.27128C17.3507 6.65597 17.1352 7.17772 17.1352 7.72175C17.1352 8.26579 17.3507 8.78754 17.7344 9.17223C18.118 9.55692 18.6384 9.77304 19.181 9.77304ZM22.9657 13.8756C23.1672 13.8756 23.3667 13.8358 23.5528 13.7585C23.739 13.6812 23.9081 13.5679 24.0506 13.425C24.1931 13.2821 24.3061 13.1125 24.3832 12.9259C24.4603 12.7392 24.5 12.5392 24.5 12.3371C24.5 12.1351 24.4603 11.9351 24.3832 11.7484C24.3061 11.5617 24.1931 11.3921 24.0506 11.2493C23.9081 11.1064 23.739 10.9931 23.5528 10.9158C23.3667 10.8385 23.1672 10.7987 22.9657 10.7987C22.5587 10.7987 22.1685 10.9608 21.8807 11.2493C21.593 11.5378 21.4313 11.9291 21.4313 12.3371C21.4313 12.7452 21.593 13.1365 21.8807 13.425C22.1685 13.7135 22.5587 13.8756 22.9657 13.8756ZM5.54579 11.8243C6.08836 11.8243 6.60872 11.6082 6.99238 11.2235C7.37604 10.8388 7.59157 10.3171 7.59157 9.77304C7.59157 9.229 7.37604 8.70725 6.99238 8.32256C6.60872 7.93787 6.08836 7.72175 5.54579 7.72175C5.00321 7.72175 4.48286 7.93787 4.0992 8.32256C3.71554 8.70725 3.5 9.229 3.5 9.77304C3.5 10.3171 3.71554 10.8388 4.0992 11.2235C4.48286 11.6082 5.00321 11.8243 5.54579 11.8243Z" stroke="#8FB5F5" stroke-width="1.75" stroke-linecap="round" stroke-linejoin="round"/>
</svg>
