<svg width="29" height="27" viewBox="0 0 29 27" fill="none" xmlns="http://www.w3.org/2000/svg">
<path d="M6.49586 18.3563C6.25037 21.3204 8.48027 23.7409 11.4467 23.7409H16.3463C19.681 23.7409 21.9722 21.0435 21.4199 17.7409C20.8368 14.2742 17.5022 11.4332 13.9937 11.4332C10.1885 11.4332 6.81296 14.5512 6.49586 18.3563ZM12.6946 8.86911C13.3728 8.86911 14.0233 8.59897 14.5028 8.1181C14.9824 7.63724 15.2518 6.98505 15.2518 6.30501C15.2518 5.62497 14.9824 4.97278 14.5028 4.49191C14.0233 4.01105 13.3728 3.74091 12.6946 3.74091C12.0164 3.74091 11.3659 4.01105 10.8864 4.49191C10.4068 4.97278 10.1374 5.62497 10.1374 6.30501C10.1374 6.98505 10.4068 7.63724 10.8864 8.1181C11.3659 8.59897 12.0164 8.86911 12.6946 8.86911ZM19.681 10.0999C20.2235 10.0999 20.7439 9.88376 21.1275 9.49907C21.5112 9.11438 21.7267 8.59263 21.7267 8.0486C21.7267 7.50456 21.5112 6.98281 21.1275 6.59812C20.7439 6.21343 20.2235 5.99732 19.681 5.99732C19.1384 5.99732 18.618 6.21343 18.2344 6.59812C17.8507 6.98281 17.6352 7.50456 17.6352 8.0486C17.6352 8.59263 17.8507 9.11438 18.2344 9.49907C18.618 9.88376 19.1384 10.0999 19.681 10.0999ZM23.4657 14.2024C23.6672 14.2024 23.8667 14.1627 24.0528 14.0853C24.239 14.008 24.4081 13.8947 24.5506 13.7518C24.6931 13.609 24.8061 13.4394 24.8832 13.2527C24.9603 13.0661 25 12.866 25 12.664C25 12.4619 24.9603 12.2619 24.8832 12.0752C24.8061 11.8886 24.6931 11.719 24.5506 11.5761C24.4081 11.4333 24.239 11.3199 24.0528 11.2426C23.8667 11.1653 23.6672 11.1255 23.4657 11.1255C23.0587 11.1255 22.6685 11.2876 22.3807 11.5761C22.093 11.8646 21.9313 12.256 21.9313 12.664C21.9313 13.072 22.093 13.4633 22.3807 13.7518C22.6685 14.0404 23.0587 14.2024 23.4657 14.2024ZM6.04579 12.1512C6.58836 12.1512 7.10872 11.935 7.49238 11.5504C7.87604 11.1657 8.09157 10.6439 8.09157 10.0999C8.09157 9.55585 7.87604 9.0341 7.49238 8.64941C7.10872 8.26472 6.58836 8.0486 6.04579 8.0486C5.50321 8.0486 4.98286 8.26472 4.5992 8.64941C4.21554 9.0341 4 9.55585 4 10.0999C4 10.6439 4.21554 11.1657 4.5992 11.5504C4.98286 11.935 5.50321 12.1512 6.04579 12.1512Z" stroke="#FBFBFB" stroke-width="1.75" stroke-linecap="round" stroke-linejoin="round"/>
</svg>
