<svg width="16" height="16" viewBox="0 0 16 16" fill="none" xmlns="http://www.w3.org/2000/svg">
<g id="email-outline" clip-path="url(#clip0_2778_69904)">
<g id="Layer 2">
<g id="email">
<path id="Vector" d="M12.6668 2.66406H3.3335C2.80306 2.66406 2.29436 2.87478 1.91928 3.24985C1.54421 3.62492 1.3335 4.13363 1.3335 4.66406V11.3307C1.3335 11.8612 1.54421 12.3699 1.91928 12.7449C2.29436 13.12 2.80306 13.3307 3.3335 13.3307H12.6668C13.1973 13.3307 13.706 13.12 14.081 12.7449C14.4561 12.3699 14.6668 11.8612 14.6668 11.3307V4.66406C14.6668 4.13363 14.4561 3.62492 14.081 3.24985C13.706 2.87478 13.1973 2.66406 12.6668 2.66406ZM12.2202 3.9974L8.00016 7.16406L3.78016 3.9974H12.2202ZM12.6668 11.9974H3.3335C3.15669 11.9974 2.98712 11.9272 2.86209 11.8021C2.73707 11.6771 2.66683 11.5075 2.66683 11.3307V4.83073L7.60016 8.53073C7.71556 8.61728 7.85592 8.66406 8.00016 8.66406C8.14441 8.66406 8.28477 8.61728 8.40016 8.53073L13.3335 4.83073V11.3307C13.3335 11.5075 13.2633 11.6771 13.1382 11.8021C13.0132 11.9272 12.8436 11.9974 12.6668 11.9974Z" fill="#3377FF"/>
</g>
</g>
</g>
<defs>
<clipPath id="clip0_2778_69904">
<rect width="16" height="16" fill="white"/>
</clipPath>
</defs>
</svg>
