<svg width="24" height="25" viewBox="0 0 24 25" fill="none" xmlns="http://www.w3.org/2000/svg">
<path d="M7.51586 9.66607C6.75724 9.66452 6.01151 9.87685 5.35304 10.2819L5.31027 10.3039C5.18834 10.3862 5.07069 10.4756 4.95786 10.5718C4.87418 10.6368 4.78305 10.6907 4.70494 10.7637C4.69658 10.7717 4.691 10.7817 4.6817 10.7897C4.62126 10.8477 4.57384 10.9167 4.51712 10.9777C4.19835 11.3077 3.94377 11.7026 3.76818 12.1394C3.59259 12.5761 3.49949 13.0461 3.49429 13.5219V18.3064C3.55639 19.3893 4.0138 20.402 4.76696 21.1241C5.52013 21.8462 6.5081 22.2193 7.51586 22.1621C8.52393 22.2198 9.51237 21.847 10.2659 21.1248C11.0195 20.4026 11.4772 19.3896 11.5393 18.3064V13.5219C11.5342 12.9939 11.4231 12.4734 11.2135 11.996C11.0039 11.5185 10.7008 11.0955 10.3249 10.7557C9.54074 10.0415 8.54356 9.65466 7.51586 9.66607ZM7.51586 20.6626C7.03877 20.6802 6.5659 20.5612 6.14556 20.318C5.72522 20.0747 5.37248 19.7159 5.12337 19.2781C5.14383 19.292 5.16801 19.302 5.18939 19.315C5.24704 19.351 5.30934 19.381 5.36978 19.415C5.51338 19.4957 5.66116 19.5674 5.81239 19.6299C5.8877 19.6609 5.96488 19.6889 6.04392 19.7159C6.20369 19.7693 6.36603 19.8133 6.53022 19.8479C6.60554 19.8649 6.679 19.8839 6.75618 19.8969C7.25901 19.9848 7.77177 19.9848 8.27461 19.8969C8.35271 19.8839 8.42524 19.8649 8.50149 19.8479C8.66566 19.8132 8.82799 19.7692 8.9878 19.7159C9.06683 19.6889 9.14308 19.6609 9.21933 19.6299C9.37033 19.5676 9.5178 19.4959 9.661 19.415C9.72144 19.381 9.78374 19.351 9.84697 19.315C9.86743 19.302 9.89253 19.292 9.91299 19.2781C9.66349 19.7166 9.31001 20.076 8.88878 20.3193C8.46755 20.5626 7.99372 20.6811 7.51586 20.6626ZM7.51586 18.4633C6.0495 18.4633 4.94391 17.5576 4.89742 16.348C5.6654 16.922 6.58059 17.2245 7.51586 17.2137C8.45128 17.2246 9.36658 16.9217 10.1343 16.347C10.0878 17.5576 8.98129 18.4633 7.51586 18.4633ZM9.8916 14.4906C9.6234 14.893 9.26505 15.2162 8.84975 15.4301C8.43445 15.644 7.97564 15.7417 7.51586 15.7142C7.05573 15.7418 6.59656 15.644 6.18104 15.4297C5.76552 15.2154 5.40713 14.8917 5.13918 14.4886C4.97322 14.1979 4.88655 13.8629 4.88905 13.5219C4.88854 13.3681 4.90477 13.2147 4.93741 13.065C4.95135 13.002 4.97832 12.943 4.99784 12.8821C5.02097 12.7969 5.04988 12.7137 5.08432 12.6331C5.12315 12.5552 5.16663 12.4801 5.2145 12.4082C5.2489 12.3512 5.27773 12.2922 5.31678 12.2383C5.38488 12.15 5.45851 12.0668 5.53715 11.9893C5.56877 11.9564 5.59573 11.9204 5.63014 11.8894C5.73065 11.7986 5.8376 11.7164 5.95 11.6434C5.97883 11.6245 6.003 11.6005 6.03276 11.5815C6.13063 11.5251 6.23154 11.475 6.33496 11.4315C6.38703 11.4075 6.43538 11.3765 6.49024 11.3555C6.5451 11.3345 6.59531 11.3285 6.64645 11.3116C6.92823 11.2182 7.22104 11.1691 7.51586 11.1656C8.20624 11.1546 8.87736 11.4103 9.40715 11.8864C9.6322 12.086 9.81457 12.3354 9.94182 12.6176C10.0691 12.8999 10.1382 13.2083 10.1445 13.5219C10.1459 13.8638 10.0583 14.1993 9.8916 14.4906ZM21.0702 8.80434V7.91662C21.1487 6.52115 20.7195 5.14753 19.8732 4.08606C19.027 3.02459 17.83 2.35844 16.5353 2.2284C16.2667 2.18469 15.9952 2.16463 15.7236 2.16842H7.35499C7.07492 2.16764 6.79519 2.18936 6.51814 2.2334C5.2299 2.37285 4.04156 3.04192 3.20124 4.10091C2.36091 5.1599 1.93356 6.52694 2.0084 7.91662V9.91599C2.0084 10.1148 2.08188 10.3055 2.21266 10.4462C2.34345 10.5868 2.52083 10.6658 2.70578 10.6658C2.89074 10.6658 3.06812 10.5868 3.19891 10.4462C3.32969 10.3055 3.40317 10.1148 3.40317 9.91599V7.91662C3.33283 6.89075 3.63973 5.87617 4.25787 5.09101C4.87602 4.30586 5.75605 3.81283 6.70875 3.71794C6.92268 3.68373 7.13871 3.66702 7.35499 3.66795H15.7236C15.9299 3.66418 16.1361 3.67923 16.3401 3.71294C17.2993 3.79915 18.1879 4.28927 18.8126 5.07659C19.4373 5.86391 19.7474 6.88466 19.6754 7.91662V8.6164H18.4387C18.0785 8.61839 17.7226 8.70042 17.3932 8.85732C17.0639 9.01422 16.7683 9.24262 16.5249 9.52817C16.2816 9.81372 16.0958 10.1503 15.9792 10.5167C15.8625 10.8831 15.8176 11.2715 15.8472 11.6574C15.921 12.3689 16.2388 13.0252 16.7387 13.4981C17.2386 13.971 17.8845 14.2265 18.5503 14.2146H19.6754V14.9144C19.7123 15.4826 19.6354 16.0527 19.4499 16.5862C19.2644 17.1196 18.9745 17.6041 18.5999 18.0068C18.2253 18.4096 17.7747 18.7212 17.2785 18.9207C16.7823 19.1201 16.252 19.2028 15.7236 19.1631H13.399C13.214 19.1631 13.0366 19.2421 12.9058 19.3827C12.7751 19.5233 12.7016 19.714 12.7016 19.9129C12.7016 20.1117 12.7751 20.3024 12.9058 20.443C13.0366 20.5836 13.214 20.6626 13.399 20.6626H15.7236C16.4365 20.7071 17.1501 20.5888 17.8175 20.3157C18.4849 20.0425 19.091 19.6206 19.596 19.0777C20.101 18.5348 20.4934 17.8832 20.7474 17.1657C21.0015 16.4481 21.1115 15.6809 21.0702 14.9144V14.0317C21.3486 13.8885 21.5837 13.6636 21.7482 13.3828C21.9127 13.1021 22 12.777 22 12.4452V10.3858C21.9999 10.0547 21.9125 9.73034 21.748 9.45042C21.5834 9.1705 21.3484 8.94648 21.0702 8.80434ZM20.6052 12.4452C20.6048 12.5132 20.5807 12.5787 20.5377 12.6286C20.4947 12.6785 20.4359 12.7094 20.3728 12.7151H18.5503C18.2336 12.7245 17.9247 12.6083 17.6825 12.3888C17.4402 12.1693 17.2815 11.8617 17.2364 11.5245C17.2204 11.3333 17.2449 11.1407 17.308 10.9612C17.3711 10.7816 17.4713 10.6198 17.6009 10.4878C17.7099 10.3684 17.8402 10.2739 17.984 10.21C18.1278 10.1461 18.2822 10.1141 18.4378 10.1159H20.3477C20.4147 10.1162 20.479 10.1445 20.5269 10.1949C20.5749 10.2453 20.6026 10.3138 20.6043 10.3858L20.6052 12.4452Z" fill="#8FB5F5"/>
</svg>
