<svg width="24" height="24" viewBox="0 0 24 24" fill="none" xmlns="http://www.w3.org/2000/svg">
<path d="M7.51586 9.4981C6.75724 9.49655 6.01151 9.70888 5.35304 10.1139L5.31027 10.1359C5.18834 10.2182 5.07069 10.3077 4.95786 10.4038C4.87418 10.4688 4.78305 10.5228 4.70494 10.5958C4.69658 10.6038 4.691 10.6137 4.6817 10.6217C4.62126 10.6797 4.57384 10.7487 4.51712 10.8097C4.19835 11.1398 3.94377 11.5347 3.76818 11.9714C3.59259 12.4082 3.49949 12.8781 3.49429 13.3539V18.1384C3.55639 19.2213 4.0138 20.234 4.76696 20.9561C5.52013 21.6782 6.5081 22.0513 7.51586 21.9942C8.52393 22.0519 9.51237 21.679 10.2659 20.9569C11.0195 20.2347 11.4772 19.2217 11.5393 18.1384V13.3539C11.5342 12.826 11.4231 12.3055 11.2135 11.828C11.0039 11.3506 10.7008 10.9275 10.3249 10.5878C9.54074 9.8735 8.54356 9.48669 7.51586 9.4981ZM7.51586 20.4946C7.03877 20.5122 6.5659 20.3933 6.14556 20.15C5.72522 19.9068 5.37248 19.5479 5.12337 19.1101C5.14383 19.1241 5.16801 19.1341 5.18939 19.1471C5.24704 19.1831 5.30934 19.2131 5.36978 19.247C5.51338 19.3277 5.66116 19.3995 5.81239 19.462C5.8877 19.493 5.96488 19.521 6.04392 19.5479C6.20369 19.6013 6.36603 19.6454 6.53022 19.6799C6.60554 19.6969 6.679 19.7159 6.75618 19.7289C7.25901 19.8169 7.77177 19.8169 8.27461 19.7289C8.35271 19.7159 8.42524 19.6969 8.50149 19.6799C8.66566 19.6452 8.82799 19.6012 8.9878 19.5479C9.06683 19.521 9.14308 19.493 9.21933 19.462C9.37033 19.3997 9.5178 19.3279 9.661 19.247C9.72144 19.2131 9.78374 19.1831 9.84697 19.1471C9.86743 19.1341 9.89253 19.1241 9.91299 19.1101C9.66349 19.5486 9.31001 19.908 8.88878 20.1513C8.46755 20.3946 7.99372 20.5131 7.51586 20.4946ZM7.51586 18.2953C6.0495 18.2953 4.94391 17.3896 4.89742 16.18C5.6654 16.754 6.58059 17.0566 7.51586 17.0457C8.45128 17.0567 9.36658 16.7537 10.1343 16.179C10.0878 17.3896 8.98129 18.2953 7.51586 18.2953ZM9.8916 14.3226C9.6234 14.725 9.26505 15.0482 8.84975 15.2621C8.43445 15.476 7.97564 15.5737 7.51586 15.5462C7.05573 15.5738 6.59656 15.476 6.18104 15.2617C5.76552 15.0474 5.40713 14.7237 5.13918 14.3206C4.97322 14.0299 4.88655 13.695 4.88905 13.3539C4.88854 13.2001 4.90477 13.0468 4.93741 12.897C4.95135 12.8341 4.97832 12.7751 4.99784 12.7141C5.02097 12.629 5.04988 12.5458 5.08432 12.4652C5.12315 12.3872 5.16663 12.3121 5.2145 12.2402C5.2489 12.1833 5.27773 12.1243 5.31678 12.0703C5.38488 11.982 5.45851 11.8989 5.53715 11.8214C5.56877 11.7884 5.59573 11.7524 5.63014 11.7214C5.73065 11.6306 5.8376 11.5484 5.95 11.4755C5.97883 11.4565 6.003 11.4325 6.03276 11.4135C6.13063 11.3571 6.23154 11.307 6.33496 11.2635C6.38703 11.2396 6.43538 11.2086 6.49024 11.1876C6.5451 11.1666 6.59531 11.1606 6.64645 11.1436C6.92823 11.0503 7.22104 11.0011 7.51586 10.9976C8.20624 10.9866 8.87736 11.2424 9.40715 11.7184C9.6322 11.918 9.81457 12.1674 9.94182 12.4496C10.0691 12.7319 10.1382 13.0403 10.1445 13.3539C10.1459 13.6958 10.0583 14.0314 9.8916 14.3226ZM21.0702 8.63637V7.74865C21.1487 6.35318 20.7195 4.97956 19.8732 3.91809C19.027 2.85662 17.83 2.19047 16.5353 2.06043C16.2667 2.01672 15.9952 1.99666 15.7236 2.00045H7.35499C7.07492 1.99967 6.79519 2.02139 6.51814 2.06543C5.2299 2.20488 4.04156 2.87395 3.20124 3.93294C2.36091 4.99193 1.93356 6.35897 2.0084 7.74865V9.74802C2.0084 9.94687 2.08188 10.1376 2.21266 10.2782C2.34345 10.4188 2.52083 10.4978 2.70578 10.4978C2.89074 10.4978 3.06812 10.4188 3.19891 10.2782C3.32969 10.1376 3.40317 9.94687 3.40317 9.74802V7.74865C3.33283 6.72278 3.63973 5.7082 4.25787 4.92304C4.87602 4.13789 5.75605 3.64486 6.70875 3.54997C6.92268 3.51576 7.13871 3.49905 7.35499 3.49998H15.7236C15.9299 3.49621 16.1361 3.51126 16.3401 3.54497C17.2993 3.63118 18.1879 4.12131 18.8126 4.90862C19.4373 5.69594 19.7474 6.71669 19.6754 7.74865V8.44843H18.4387C18.0785 8.45043 17.7226 8.53245 17.3932 8.68935C17.0639 8.84625 16.7683 9.07465 16.5249 9.3602C16.2816 9.64575 16.0958 9.9823 15.9792 10.3487C15.8625 10.7151 15.8176 11.1035 15.8472 11.4895C15.921 12.2009 16.2388 12.8573 16.7387 13.3302C17.2386 13.8031 17.8845 14.0585 18.5503 14.0467H19.6754V14.7465C19.7123 15.3146 19.6354 15.8847 19.4499 16.4182C19.2644 16.9517 18.9745 17.4361 18.5999 17.8389C18.2253 18.2416 17.7747 18.5532 17.2785 18.7527C16.7823 18.9522 16.252 19.0348 15.7236 18.9951H13.399C13.214 18.9951 13.0366 19.0741 12.9058 19.2147C12.7751 19.3553 12.7016 19.546 12.7016 19.7449C12.7016 19.9437 12.7751 20.1344 12.9058 20.275C13.0366 20.4157 13.214 20.4946 13.399 20.4946H15.7236C16.4365 20.5391 17.1501 20.4209 17.8175 20.1477C18.4849 19.8745 19.091 19.4527 19.596 18.9098C20.101 18.3669 20.4934 17.7152 20.7474 16.9977C21.0015 16.2802 21.1115 15.5129 21.0702 14.7465V13.8637C21.3486 13.7205 21.5837 13.4956 21.7482 13.2149C21.9127 12.9341 22 12.6091 22 12.2772V10.2179C21.9999 9.88672 21.9125 9.56237 21.748 9.28245C21.5834 9.00253 21.3484 8.77851 21.0702 8.63637ZM20.6052 12.2772C20.6048 12.3453 20.5807 12.4107 20.5377 12.4606C20.4947 12.5106 20.4359 12.5414 20.3728 12.5471H18.5503C18.2336 12.5565 17.9247 12.4404 17.6825 12.2208C17.4402 12.0013 17.2815 11.6937 17.2364 11.3565C17.2204 11.1653 17.2449 10.9727 17.308 10.7932C17.3711 10.6137 17.4713 10.4518 17.6009 10.3198C17.7099 10.2004 17.8402 10.1059 17.984 10.042C18.1278 9.97813 18.2822 9.94613 18.4378 9.94796H20.3477C20.4147 9.9482 20.479 9.97652 20.5269 10.0269C20.5749 10.0773 20.6026 10.1458 20.6043 10.2179L20.6052 12.2772Z" fill="#FBFBFB"/>
</svg>
