<svg width="16" height="16" viewBox="0 0 16 16" fill="none" xmlns="http://www.w3.org/2000/svg">
<g id="browser-outline" clip-path="url(#clip0_2778_69912)">
<g id="Layer 2">
<g id="browser">
<path id="Vector" d="M12 2H4C3.46957 2 2.96086 2.21071 2.58579 2.58579C2.21071 2.96086 2 3.46957 2 4V12C2 12.5304 2.21071 13.0391 2.58579 13.4142C2.96086 13.7893 3.46957 14 4 14H12C12.5304 14 13.0391 13.7893 13.4142 13.4142C13.7893 13.0391 14 12.5304 14 12V4C14 3.46957 13.7893 2.96086 13.4142 2.58579C13.0391 2.21071 12.5304 2 12 2ZM12.6667 12C12.6667 12.1768 12.5964 12.3464 12.4714 12.4714C12.3464 12.5964 12.1768 12.6667 12 12.6667H4C3.82319 12.6667 3.65362 12.5964 3.5286 12.4714C3.40357 12.3464 3.33333 12.1768 3.33333 12V7.33333H12.6667V12ZM3.33333 6V4C3.33333 3.82319 3.40357 3.65362 3.5286 3.5286C3.65362 3.40357 3.82319 3.33333 4 3.33333H12C12.1768 3.33333 12.3464 3.40357 12.4714 3.5286C12.5964 3.65362 12.6667 3.82319 12.6667 4V6H3.33333Z" fill="#3377FF"/>
<path id="Vector_2" d="M5.33317 5.35677C5.70136 5.35677 5.99984 5.05829 5.99984 4.6901C5.99984 4.32191 5.70136 4.02344 5.33317 4.02344C4.96498 4.02344 4.6665 4.32191 4.6665 4.6901C4.6665 5.05829 4.96498 5.35677 5.33317 5.35677Z" fill="#3377FF"/>
<path id="Vector_3" d="M8.00016 5.35677C8.36835 5.35677 8.66683 5.05829 8.66683 4.6901C8.66683 4.32191 8.36835 4.02344 8.00016 4.02344C7.63197 4.02344 7.3335 4.32191 7.3335 4.6901C7.3335 5.05829 7.63197 5.35677 8.00016 5.35677Z" fill="#8FB5F5"/>
</g>
</g>
</g>
<defs>
<clipPath id="clip0_2778_69912">
<rect width="16" height="16" fill="white"/>
</clipPath>
</defs>
</svg>
