<svg width="16" height="16" viewBox="0 0 16 16" fill="none" xmlns="http://www.w3.org/2000/svg">
<g id="hash-outline" clip-path="url(#clip0_2778_69920)">
<g id="Layer 2">
<g id="hash">
<path id="Vector" d="M13.3333 9.33586H10.4667L10.9533 6.66919H13.3333C13.5101 6.66919 13.6797 6.59895 13.8047 6.47393C13.9298 6.3489 14 6.17933 14 6.00252C14 5.82571 13.9298 5.65614 13.8047 5.53112C13.6797 5.40609 13.5101 5.33586 13.3333 5.33586H11.1933L11.6533 2.79586C11.6715 2.70673 11.6713 2.61482 11.6526 2.52579C11.6339 2.43676 11.5972 2.3525 11.5448 2.27818C11.4923 2.20387 11.4252 2.14108 11.3476 2.09367C11.2699 2.04626 11.1834 2.01524 11.0933 2.00252C11.0038 1.98119 10.9108 1.97863 10.8202 1.99502C10.7296 2.01141 10.6434 2.04638 10.5669 2.09774C10.4905 2.1491 10.4256 2.21572 10.3762 2.29342C10.3268 2.37112 10.2941 2.45821 10.28 2.54919L9.78 5.33586H7.19333L7.65333 2.79586C7.67151 2.70673 7.67125 2.61482 7.65258 2.52579C7.63391 2.43676 7.59722 2.3525 7.54476 2.27818C7.4923 2.20387 7.42519 2.14108 7.34755 2.09367C7.26992 2.04626 7.1834 2.01524 7.09333 2.00252C7.00377 1.98119 6.91077 1.97863 6.82017 1.99502C6.72958 2.01141 6.64336 2.04638 6.56695 2.09774C6.49054 2.1491 6.4256 2.21572 6.37621 2.29342C6.32682 2.37112 6.29407 2.45821 6.28 2.54919L5.78 5.33586H2.66667C2.48986 5.33586 2.32029 5.40609 2.19526 5.53112C2.07024 5.65614 2 5.82571 2 6.00252C2 6.17933 2.07024 6.3489 2.19526 6.47393C2.32029 6.59895 2.48986 6.66919 2.66667 6.66919H5.53333L5.04667 9.33586H2.66667C2.48986 9.33586 2.32029 9.40609 2.19526 9.53112C2.07024 9.65614 2 9.82571 2 10.0025C2 10.1793 2.07024 10.3489 2.19526 10.4739C2.32029 10.599 2.48986 10.6692 2.66667 10.6692H4.80667L4.34667 13.2092C4.32849 13.2983 4.32875 13.3902 4.34742 13.4793C4.36609 13.5683 4.40278 13.6525 4.45524 13.7269C4.5077 13.8012 4.57481 13.864 4.65245 13.9114C4.73008 13.9588 4.8166 13.9898 4.90667 14.0025C4.99623 14.0239 5.08923 14.0264 5.17983 14.01C5.27042 13.9936 5.35664 13.9587 5.43305 13.9073C5.50946 13.8559 5.5744 13.7893 5.62379 13.7116C5.67318 13.6339 5.70593 13.5468 5.72 13.4559L6.22 10.6692H8.80667L8.34667 13.2092C8.32849 13.2983 8.32875 13.3902 8.34742 13.4793C8.36609 13.5683 8.40279 13.6525 8.45524 13.7269C8.5077 13.8012 8.57481 13.864 8.65245 13.9114C8.73008 13.9588 8.8166 13.9898 8.90667 14.0025C8.99623 14.0239 9.08923 14.0264 9.17983 14.01C9.27042 13.9936 9.35664 13.9587 9.43305 13.9073C9.50946 13.8559 9.5744 13.7893 9.62379 13.7116C9.67318 13.6339 9.70593 13.5468 9.72 13.4559L10.22 10.6692H13.3333C13.5101 10.6692 13.6797 10.599 13.8047 10.4739C13.9298 10.3489 14 10.1793 14 10.0025C14 9.82571 13.9298 9.65614 13.8047 9.53112C13.6797 9.40609 13.5101 9.33586 13.3333 9.33586ZM6.46667 9.33586L6.95333 6.66919H9.53333L9.04667 9.33586H6.46667Z" fill="#3377FF"/>
</g>
</g>
</g>
<defs>
<clipPath id="clip0_2778_69920">
<rect width="16" height="16" fill="white"/>
</clipPath>
</defs>
</svg>
