<svg width="41" height="42" viewBox="0 0 41 42" fill="none" xmlns="http://www.w3.org/2000/svg">
<g clip-path="url(#clip0_3327_7113)">
<path d="M39.3646 11.7752L20.8899 0.283039C20.6482 0.13482 20.3465 0.13482 20.1092 0.283039L1.63541 11.7752C0.612177 12.4122 0 13.5142 0 14.7193C0 16.0092 0.676571 17.1455 1.8083 17.7631C2.93916 18.3807 4.26319 18.3313 5.34552 17.6343L5.59251 17.4764L6.91654 40.4749C6.94124 40.8657 7.26233 41.171 7.65751 41.171H33.3443C33.735 41.171 34.0605 40.8649 34.0852 40.4749L35.4093 17.4764L35.6562 17.6343C36.234 18.0048 36.8815 18.1927 37.5281 18.1927C38.0961 18.1927 38.6642 18.0498 39.1926 17.7631C40.3234 17.1455 41.0009 16.0092 41.0009 14.7193C41.0009 13.5142 40.3878 12.4122 39.3663 11.7744L39.3646 11.7752ZM25.7758 39.695H15.2242V30.3528C15.2242 27.4432 17.59 25.0761 20.5 25.0761C23.41 25.0761 25.7758 27.4423 25.7758 30.3528V39.695ZM32.6465 39.695H27.2569V30.3528C27.2569 26.628 24.2242 23.5939 20.4991 23.5939C16.774 23.5939 13.7414 26.6271 13.7414 30.3528V39.695H8.35172L7.01799 16.5579L20.4938 7.88187L33.9697 16.5579L32.6359 39.695H32.6465ZM38.4851 16.4688C37.8377 16.8244 37.0773 16.7953 36.4598 16.3947L20.9049 6.38028C20.7814 6.30176 20.6429 6.26206 20.5044 6.26206C20.3659 6.26206 20.2274 6.30176 20.1039 6.38028L4.55075 16.3947C3.92887 16.7953 3.17291 16.82 2.52545 16.4688C1.87799 16.1133 1.4881 15.4604 1.4881 14.7246C1.4881 14.0329 1.83918 13.4004 2.42666 13.0395L20.5018 1.78463L38.5813 13.0342C39.1688 13.3995 39.5198 14.032 39.5198 14.7193C39.5198 15.4551 39.1344 16.1071 38.4825 16.4635L38.486 16.4688H38.4851Z" fill="#8FB5F5"/>
<path d="M15.7756 14.7742C15.9767 14.8563 16.034 14.9904 15.9494 15.1774L15.8479 15.4359C15.8082 15.5347 15.7562 15.5965 15.6909 15.6203C15.6256 15.6441 15.5471 15.638 15.4536 15.6009C15.3319 15.5471 15.2146 15.5206 15.1017 15.5206C14.8952 15.5206 14.7232 15.5877 14.5865 15.7218C14.4498 15.8559 14.381 16.0508 14.381 16.3049V16.4876H15.301C15.406 16.4876 15.4863 16.5149 15.5427 16.5705C15.5992 16.6261 15.6274 16.7055 15.6274 16.8105V17.0266C15.6274 17.1316 15.5992 17.2128 15.5427 17.2701C15.4863 17.3283 15.406 17.3575 15.301 17.3575H14.381V20.5344C14.381 20.6394 14.3528 20.7215 14.2963 20.7824C14.2398 20.8432 14.1605 20.8732 14.059 20.8732H13.5545C13.4495 20.8732 13.3683 20.8432 13.311 20.7824C13.2528 20.7215 13.2237 20.6386 13.2237 20.5344V17.3575H12.8161C12.7112 17.3575 12.63 17.3283 12.5727 17.2701C12.5145 17.2119 12.4854 17.1307 12.4854 17.0266V16.8105C12.4854 16.7055 12.5145 16.6261 12.5727 16.5705C12.6309 16.5149 12.7121 16.4876 12.8161 16.4876H13.2237V16.3049C13.2237 16.0217 13.2731 15.7703 13.3719 15.5497C13.4707 15.3292 13.6047 15.1527 13.7723 15.0195C13.9408 14.8863 14.1261 14.7866 14.3298 14.7186C14.5336 14.6507 14.7471 14.6172 14.9702 14.6172C15.2843 14.6172 15.5524 14.6692 15.7765 14.7742H15.7756Z" fill="#8FB5F5"/>
<path d="M20.6544 20.4623C20.717 20.6317 20.68 20.7535 20.5441 20.8267C20.3545 20.937 20.134 20.9926 19.8826 20.9926C19.6532 20.9926 19.4609 20.9308 19.3039 20.8082C19.1469 20.6855 19.0419 20.5091 18.9881 20.2797C18.7085 20.7543 18.2683 20.9926 17.6694 20.9926C17.141 20.9926 16.7141 20.8276 16.3903 20.4985C16.0666 20.1694 15.9043 19.7371 15.9043 19.2025V16.823C15.9043 16.718 15.9316 16.6369 15.9872 16.5795C16.0428 16.5222 16.1222 16.4922 16.2271 16.4922H16.7273C16.8323 16.4922 16.9134 16.5213 16.9708 16.5795C17.029 16.6378 17.0581 16.7189 17.0581 16.823V19.071C17.0581 19.348 17.1357 19.5712 17.291 19.7389C17.4462 19.9074 17.6553 19.9912 17.919 19.9912C18.1828 19.9912 18.4112 19.9047 18.5718 19.7327C18.7332 19.5598 18.8135 19.3313 18.8135 19.0454V16.823C18.8135 16.718 18.8408 16.6369 18.8964 16.5795C18.952 16.5222 19.0313 16.4922 19.1363 16.4922H19.6409C19.7458 16.4922 19.8261 16.5213 19.8826 16.5795C19.939 16.6378 19.9672 16.7189 19.9672 16.823V19.843C19.9672 19.9533 20.0052 20.0088 20.0819 20.0088C20.1075 20.0088 20.1428 20.0027 20.1878 19.9894C20.2328 19.9771 20.2672 19.9691 20.2892 19.9665C20.4189 19.933 20.5097 19.9965 20.5609 20.1571L20.6544 20.4623Z" fill="#8FB5F5"/>
<path d="M24.0587 16.4952C24.1381 16.5208 24.1954 16.5588 24.2325 16.6099C24.2695 16.6611 24.2722 16.7387 24.2413 16.8428L24.1266 17.2751C24.0755 17.4622 23.9625 17.5283 23.787 17.4745C23.6573 17.4295 23.5268 17.4066 23.3971 17.4066C23.1201 17.4066 22.9031 17.5045 22.7461 17.6995C22.5891 17.8945 22.5106 18.1503 22.5106 18.4671V20.5324C22.5106 20.6374 22.4815 20.7195 22.4233 20.7803C22.3651 20.8412 22.2839 20.8712 22.1798 20.8712H21.6753C21.5738 20.8712 21.4953 20.8412 21.4397 20.7803C21.3842 20.7195 21.3568 20.6365 21.3568 20.5324V17.5716C21.3568 17.4781 21.3189 17.4313 21.2421 17.4313C21.2139 17.4313 21.1707 17.4401 21.1125 17.4586C21.0543 17.4772 21.0146 17.4878 20.9916 17.4904C20.8761 17.5301 20.7905 17.4666 20.7376 17.2998L20.6608 16.9355C20.6044 16.7573 20.645 16.6329 20.7835 16.5623C20.9528 16.4635 21.1548 16.4141 21.3903 16.4141C21.6109 16.4141 21.8032 16.4679 21.9672 16.5755C22.1313 16.6831 22.2433 16.8446 22.3024 17.059C22.5821 16.6293 22.9852 16.4141 23.5109 16.4141C23.6917 16.4141 23.8743 16.4405 24.0578 16.4943L24.0587 16.4952Z" fill="#8FB5F5"/>
<path d="M25.7205 15.4774C25.6684 15.4774 25.6252 15.4942 25.5917 15.5286C25.5573 15.563 25.5405 15.6098 25.5405 15.6707C25.5405 15.7315 25.5573 15.7774 25.5917 15.8109C25.6261 15.8453 25.6684 15.8621 25.7205 15.8621C25.7725 15.8621 25.8184 15.8436 25.8519 15.8065C25.8854 15.7695 25.9022 15.7245 25.9022 15.6698C25.9022 15.6151 25.8854 15.5692 25.8519 15.5321C25.8184 15.4951 25.7743 15.4766 25.7205 15.4766V15.4774Z" fill="#8FB5F5"/>
<path d="M27.7236 14.8984H25.3155C24.8797 14.8984 24.5225 15.2549 24.5225 15.6916C24.5225 16.1274 24.8788 16.4847 25.3155 16.4847H27.7236C28.1594 16.4847 28.5166 16.1283 28.5166 15.6916C28.5166 15.2558 28.1602 14.8984 27.7236 14.8984ZM26.0335 15.8433C26.0062 15.8954 25.9673 15.9368 25.9162 15.9677C25.8659 15.9986 25.8094 16.0136 25.7468 16.0136C25.6727 16.0136 25.6074 15.9915 25.5519 15.9466V16.1945C25.5519 16.2103 25.5475 16.2227 25.5386 16.2315C25.5298 16.2403 25.5175 16.2448 25.5016 16.2448H25.4257C25.4107 16.2448 25.3984 16.2403 25.3904 16.2315C25.3816 16.2227 25.3781 16.2103 25.3781 16.1945V15.4993C25.3781 15.4851 25.3719 15.4781 25.3605 15.4781C25.356 15.4781 25.3499 15.4798 25.341 15.4825C25.3322 15.4851 25.3261 15.4869 25.3234 15.4869C25.3058 15.4931 25.2934 15.4834 25.2855 15.4578L25.274 15.4031C25.2652 15.3766 25.2714 15.3572 25.2925 15.3466C25.3181 15.3316 25.3481 15.3246 25.3834 15.3246C25.4169 15.3246 25.4451 15.3325 25.4698 15.3475C25.4937 15.3634 25.5113 15.3863 25.5201 15.419C25.5819 15.3563 25.6568 15.3246 25.7459 15.3246C25.8086 15.3246 25.865 15.3396 25.9153 15.3704C25.9656 15.4004 26.0044 15.4419 26.0326 15.4948C26.06 15.5478 26.0741 15.6051 26.0741 15.6686C26.0741 15.7322 26.06 15.7895 26.0326 15.8424L26.0335 15.8433ZM26.4507 15.9677C26.4481 15.9748 26.4419 15.9818 26.4313 15.9871C26.4022 16.0048 26.3687 16.0136 26.329 16.0136C26.2778 16.0136 26.2381 15.9995 26.2099 15.9704C26.1817 15.9413 26.1685 15.8998 26.1685 15.846V15.1287C26.1685 15.1014 26.1843 15.0846 26.217 15.0775L26.2902 15.0634C26.3069 15.0599 26.3202 15.0625 26.329 15.0722C26.3378 15.0819 26.3422 15.0952 26.3422 15.1137V15.8363C26.3422 15.8451 26.3431 15.8513 26.3458 15.8548C26.3484 15.8592 26.3528 15.861 26.3599 15.861C26.3678 15.861 26.3766 15.8592 26.3863 15.8548C26.4075 15.8477 26.4225 15.8574 26.4322 15.8839L26.4463 15.9351C26.4516 15.9501 26.4525 15.9616 26.4498 15.9695L26.4507 15.9677ZM27.204 15.9889C27.1758 16.0057 27.1423 16.0136 27.1044 16.0136C27.07 16.0136 27.0409 16.0048 27.017 15.9863C26.9932 15.9677 26.9773 15.9413 26.9694 15.9069C26.9271 15.9783 26.8609 16.0136 26.7709 16.0136C26.6915 16.0136 26.6272 15.9889 26.5786 15.9395C26.5301 15.8901 26.5054 15.8248 26.5054 15.7445V15.3863C26.5054 15.3704 26.5098 15.3581 26.5178 15.3493C26.5257 15.3404 26.5381 15.336 26.5539 15.336H26.6289C26.6448 15.336 26.6571 15.3404 26.666 15.3493C26.6748 15.3581 26.6792 15.3704 26.6792 15.3863V15.7242C26.6792 15.7657 26.6907 15.7992 26.7145 15.8248C26.7383 15.8504 26.7692 15.8627 26.8089 15.8627C26.8486 15.8627 26.883 15.8495 26.9068 15.8239C26.9306 15.7983 26.9429 15.7639 26.9429 15.7207V15.3863C26.9429 15.3704 26.9474 15.3581 26.9553 15.3493C26.9632 15.3404 26.9756 15.336 26.9915 15.336H27.0673C27.0832 15.336 27.0955 15.3404 27.1035 15.3493C27.1123 15.3581 27.1158 15.3704 27.1158 15.3863V15.8407C27.1158 15.8574 27.122 15.8654 27.1335 15.8654C27.137 15.8654 27.1423 15.8645 27.1494 15.8627C27.1564 15.861 27.1608 15.8601 27.1644 15.8592C27.1838 15.8539 27.1979 15.8636 27.2049 15.8883L27.219 15.9342C27.2287 15.9598 27.2226 15.9783 27.2023 15.9889H27.204ZM27.6989 15.9598C27.6513 15.996 27.5895 16.0136 27.5119 16.0136C27.4616 16.0136 27.4122 16.0048 27.3655 15.9863C27.3187 15.9677 27.2808 15.9439 27.2534 15.9139C27.2279 15.8901 27.227 15.8654 27.2508 15.8407L27.2728 15.816C27.2958 15.7913 27.3196 15.7904 27.3452 15.8125C27.3963 15.8574 27.451 15.8795 27.5101 15.8795C27.5384 15.8795 27.5604 15.8733 27.5781 15.8619C27.5948 15.8504 27.6036 15.8354 27.6036 15.816C27.6036 15.8063 27.6019 15.7983 27.5975 15.7904C27.593 15.7825 27.5886 15.7763 27.5842 15.771C27.5789 15.7657 27.5719 15.7604 27.5604 15.7542C27.5498 15.748 27.541 15.7436 27.5348 15.741C27.5278 15.7383 27.5172 15.7339 27.5031 15.7286C27.4978 15.7269 27.4934 15.7251 27.4907 15.7233C27.4713 15.7163 27.4554 15.711 27.444 15.7075C27.4325 15.7031 27.4175 15.6978 27.3999 15.6898C27.3822 15.6819 27.3681 15.6748 27.3575 15.6678C27.3469 15.6607 27.3355 15.6528 27.3231 15.6422C27.3108 15.6316 27.3002 15.621 27.294 15.6095C27.287 15.5981 27.2817 15.5857 27.2764 15.5698C27.272 15.5548 27.2693 15.5381 27.2693 15.5204C27.2693 15.4613 27.2923 15.4137 27.3372 15.3784C27.3822 15.3431 27.4422 15.3254 27.5181 15.3254C27.5604 15.3254 27.6019 15.3325 27.6424 15.3457C27.6821 15.3599 27.7148 15.3784 27.7404 15.4022C27.7527 15.4137 27.7598 15.4243 27.7606 15.4348C27.7606 15.4454 27.7554 15.4596 27.743 15.4763L27.7245 15.5001C27.7033 15.524 27.6795 15.5266 27.653 15.5063C27.6107 15.4719 27.5657 15.4551 27.5181 15.4551C27.4934 15.4551 27.4731 15.4604 27.4581 15.4701C27.4431 15.4798 27.436 15.4931 27.436 15.5098C27.436 15.5143 27.436 15.5187 27.4378 15.5231C27.4387 15.5275 27.4413 15.531 27.4449 15.5345C27.4475 15.5381 27.451 15.5416 27.4537 15.5451C27.4563 15.5478 27.4607 15.5513 27.4669 15.5548C27.4731 15.5584 27.4784 15.561 27.4828 15.5637C27.4872 15.5663 27.4934 15.569 27.5022 15.5725C27.511 15.576 27.5172 15.5787 27.5225 15.5804C27.5278 15.5822 27.5357 15.5857 27.5463 15.5892C27.5578 15.5937 27.5657 15.5963 27.571 15.5981C27.5966 15.6087 27.6177 15.6175 27.6345 15.6254C27.6513 15.6334 27.6698 15.6439 27.6883 15.6572C27.7068 15.6695 27.7218 15.6828 27.7324 15.6969C27.7439 15.7101 27.7527 15.7269 27.7598 15.7463C27.7668 15.7657 27.7704 15.7877 27.7704 15.8107C27.7704 15.8724 27.7465 15.921 27.6998 15.9571L27.6989 15.9598Z" fill="#8FB5F5"/>
</g>
<defs>
<clipPath id="clip0_3327_7113">
<rect width="41" height="41" fill="white" transform="translate(0 0.171875)"/>
</clipPath>
</defs>
</svg>
