<svg width="41" height="41" viewBox="0 0 41 41" fill="none" xmlns="http://www.w3.org/2000/svg">
<g clip-path="url(#clip0_1265_53264)">
<path d="M39.3646 11.6034L20.8899 0.111164C20.6482 -0.0370546 20.3465 -0.0370546 20.1092 0.111164L1.63541 11.6034C0.612177 12.2404 0 13.3423 0 14.5474C0 15.8373 0.676571 16.9736 1.8083 17.5912C2.93916 18.2088 4.26319 18.1594 5.34552 17.4624L5.59251 17.3045L6.91654 40.303C6.94124 40.6939 7.26233 40.9991 7.65751 40.9991H33.3443C33.735 40.9991 34.0605 40.693 34.0852 40.303L35.4093 17.3045L35.6562 17.4624C36.234 17.833 36.8815 18.0209 37.5281 18.0209C38.0961 18.0209 38.6642 17.8779 39.1926 17.5912C40.3234 16.9736 41.0009 15.8373 41.0009 14.5474C41.0009 13.3423 40.3878 12.2404 39.3663 11.6025L39.3646 11.6034ZM25.7758 39.5231H15.2242V30.1809C15.2242 27.2713 17.59 24.9042 20.5 24.9042C23.41 24.9042 25.7758 27.2704 25.7758 30.1809V39.5231ZM32.6465 39.5231H27.2569V30.1809C27.2569 26.4561 24.2242 23.422 20.4991 23.422C16.774 23.422 13.7414 26.4552 13.7414 30.1809V39.5231H8.35172L7.01799 16.3861L20.4938 7.71L33.9697 16.3861L32.6359 39.5231H32.6465ZM38.4851 16.297C37.8377 16.6525 37.0773 16.6234 36.4598 16.2228L20.9049 6.20841C20.7814 6.12989 20.6429 6.09018 20.5044 6.09018C20.3659 6.09018 20.2274 6.12989 20.1039 6.20841L4.55075 16.2228C3.92887 16.6234 3.17291 16.6481 2.52545 16.297C1.87799 15.9414 1.4881 15.2885 1.4881 14.5527C1.4881 13.8611 1.83918 13.2285 2.42666 12.8676L20.5018 1.61276L38.5813 12.8623C39.1688 13.2276 39.5198 13.8602 39.5198 14.5474C39.5198 15.2832 39.1344 15.9352 38.4825 16.2917L38.486 16.297H38.4851Z" fill="#3377FF"/>
<path d="M15.7756 14.5995C15.9767 14.6815 16.034 14.8156 15.9494 15.0027L15.8479 15.2612C15.8082 15.36 15.7562 15.4217 15.6909 15.4456C15.6256 15.4694 15.5471 15.4632 15.4536 15.4262C15.3319 15.3723 15.2146 15.3459 15.1017 15.3459C14.8952 15.3459 14.7232 15.4129 14.5865 15.547C14.4498 15.6811 14.381 15.8761 14.381 16.1302V16.3128H15.301C15.406 16.3128 15.4863 16.3402 15.5427 16.3957C15.5992 16.4513 15.6274 16.5307 15.6274 16.6357V16.8519C15.6274 16.9569 15.5992 17.038 15.5427 17.0954C15.4863 17.1536 15.406 17.1827 15.301 17.1827H14.381V20.3597C14.381 20.4647 14.3528 20.5467 14.2963 20.6076C14.2398 20.6685 14.1605 20.6985 14.059 20.6985H13.5545C13.4495 20.6985 13.3683 20.6685 13.311 20.6076C13.2528 20.5467 13.2237 20.4638 13.2237 20.3597V17.1827H12.8161C12.7112 17.1827 12.63 17.1536 12.5727 17.0954C12.5145 17.0371 12.4854 16.956 12.4854 16.8519V16.6357C12.4854 16.5307 12.5145 16.4513 12.5727 16.3957C12.6309 16.3402 12.7121 16.3128 12.8161 16.3128H13.2237V16.1302C13.2237 15.847 13.2731 15.5955 13.3719 15.375C13.4707 15.1544 13.6047 14.978 13.7723 14.8448C13.9408 14.7115 14.1261 14.6118 14.3298 14.5439C14.5336 14.476 14.7471 14.4424 14.9702 14.4424C15.2843 14.4424 15.5524 14.4945 15.7765 14.5995H15.7756Z" fill="#3377FF"/>
<path d="M20.6544 20.2839C20.717 20.4532 20.68 20.575 20.5441 20.6482C20.3545 20.7585 20.134 20.8141 19.8826 20.8141C19.6532 20.8141 19.4609 20.7523 19.3039 20.6297C19.1469 20.5071 19.0419 20.3306 18.9881 20.1012C18.7085 20.5759 18.2683 20.8141 17.6694 20.8141C17.141 20.8141 16.7141 20.6491 16.3903 20.32C16.0666 19.9909 15.9043 19.5586 15.9043 19.024V16.6446C15.9043 16.5396 15.9316 16.4584 15.9872 16.4011C16.0428 16.3437 16.1222 16.3137 16.2271 16.3137H16.7273C16.8323 16.3137 16.9134 16.3428 16.9708 16.4011C17.029 16.4593 17.0581 16.5405 17.0581 16.6446V18.8925C17.0581 19.1696 17.1357 19.3928 17.291 19.5604C17.4462 19.7289 17.6553 19.8127 17.919 19.8127C18.1828 19.8127 18.4112 19.7263 18.5718 19.5542C18.7332 19.3813 18.8135 19.1528 18.8135 18.867V16.6446C18.8135 16.5396 18.8408 16.4584 18.8964 16.4011C18.952 16.3437 19.0313 16.3137 19.1363 16.3137H19.6409C19.7458 16.3137 19.8261 16.3428 19.8826 16.4011C19.939 16.4593 19.9672 16.5405 19.9672 16.6446V19.6645C19.9672 19.7748 20.0052 19.8304 20.0819 19.8304C20.1075 19.8304 20.1428 19.8242 20.1878 19.811C20.2328 19.7986 20.2672 19.7907 20.2892 19.788C20.4189 19.7545 20.5097 19.818 20.5609 19.9786L20.6544 20.2839Z" fill="#3377FF"/>
<path d="M24.0582 16.3216C24.1376 16.3472 24.1949 16.3852 24.232 16.4363C24.269 16.4875 24.2717 16.5651 24.2408 16.6693L24.1261 17.1016C24.075 17.2886 23.9621 17.3548 23.7865 17.3009C23.6568 17.256 23.5263 17.233 23.3966 17.233C23.1196 17.233 22.9027 17.3309 22.7456 17.5259C22.5886 17.7209 22.5101 17.9768 22.5101 18.2935V20.3588C22.5101 20.4638 22.481 20.5459 22.4228 20.6067C22.3646 20.6676 22.2834 20.6976 22.1793 20.6976H21.6748C21.5733 20.6976 21.4948 20.6676 21.4392 20.6067C21.3837 20.5459 21.3563 20.4629 21.3563 20.3588V17.398C21.3563 17.3045 21.3184 17.2577 21.2417 17.2577C21.2134 17.2577 21.1702 17.2665 21.112 17.2851C21.0538 17.3036 21.0141 17.3142 20.9911 17.3168C20.8756 17.3565 20.79 17.293 20.7371 17.1263L20.6604 16.7619C20.6039 16.5837 20.6445 16.4593 20.783 16.3887C20.9523 16.2899 21.1543 16.2405 21.3899 16.2405C21.6104 16.2405 21.8027 16.2943 21.9667 16.4019C22.1308 16.5096 22.2428 16.671 22.3019 16.8854C22.5816 16.4557 22.9847 16.2405 23.5104 16.2405C23.6912 16.2405 23.8738 16.2669 24.0573 16.3208L24.0582 16.3216Z" fill="#3377FF"/>
<path d="M25.72 15.3053C25.6679 15.3053 25.6247 15.322 25.5912 15.3564C25.5568 15.3908 25.54 15.4376 25.54 15.4985C25.54 15.5594 25.5568 15.6052 25.5912 15.6388C25.6256 15.6732 25.6679 15.6899 25.72 15.6899C25.772 15.6899 25.8179 15.6714 25.8514 15.6343C25.8849 15.5973 25.9017 15.5523 25.9017 15.4976C25.9017 15.4429 25.8849 15.397 25.8514 15.36C25.8179 15.3229 25.7738 15.3044 25.72 15.3044V15.3053Z" fill="#3377FF"/>
<path d="M27.7236 14.7274H25.3155C24.8797 14.7274 24.5225 15.0838 24.5225 15.5206C24.5225 15.9564 24.8788 16.3137 25.3155 16.3137H27.7236C28.1594 16.3137 28.5166 15.9573 28.5166 15.5206C28.5166 15.0847 28.1602 14.7274 27.7236 14.7274ZM26.0335 15.6723C26.0062 15.7244 25.9673 15.7658 25.9162 15.7967C25.8659 15.8276 25.8094 15.8426 25.7468 15.8426C25.6727 15.8426 25.6074 15.8205 25.5519 15.7755V16.0234C25.5519 16.0393 25.5475 16.0517 25.5386 16.0605C25.5298 16.0693 25.5175 16.0737 25.5016 16.0737H25.4257C25.4107 16.0737 25.3984 16.0693 25.3904 16.0605C25.3816 16.0517 25.3781 16.0393 25.3781 16.0234V15.3282C25.3781 15.3141 25.3719 15.3071 25.3605 15.3071C25.356 15.3071 25.3499 15.3088 25.341 15.3115C25.3322 15.3141 25.3261 15.3159 25.3234 15.3159C25.3058 15.3221 25.2934 15.3124 25.2855 15.2868L25.274 15.2321C25.2652 15.2056 25.2714 15.1862 25.2925 15.1756C25.3181 15.1606 25.3481 15.1535 25.3834 15.1535C25.4169 15.1535 25.4451 15.1615 25.4698 15.1765C25.4937 15.1924 25.5113 15.2153 25.5201 15.2479C25.5819 15.1853 25.6568 15.1535 25.7459 15.1535C25.8086 15.1535 25.865 15.1685 25.9153 15.1994C25.9656 15.2294 26.0044 15.2709 26.0326 15.3238C26.06 15.3768 26.0741 15.4341 26.0741 15.4976C26.0741 15.5611 26.06 15.6185 26.0326 15.6714L26.0335 15.6723ZM26.4507 15.7967C26.4481 15.8038 26.4419 15.8108 26.4313 15.8161C26.4022 15.8338 26.3687 15.8426 26.329 15.8426C26.2778 15.8426 26.2381 15.8285 26.2099 15.7994C26.1817 15.7702 26.1685 15.7288 26.1685 15.675V14.9577C26.1685 14.9303 26.1843 14.9136 26.217 14.9065L26.2902 14.8924C26.3069 14.8889 26.3202 14.8915 26.329 14.9012C26.3378 14.9109 26.3422 14.9242 26.3422 14.9427V15.6653C26.3422 15.6741 26.3431 15.6803 26.3458 15.6838C26.3484 15.6882 26.3528 15.69 26.3599 15.69C26.3678 15.69 26.3766 15.6882 26.3863 15.6838C26.4075 15.6767 26.4225 15.6864 26.4322 15.7129L26.4463 15.7641C26.4516 15.7791 26.4525 15.7905 26.4498 15.7985L26.4507 15.7967ZM27.204 15.8179C27.1758 15.8346 27.1423 15.8426 27.1044 15.8426C27.07 15.8426 27.0409 15.8338 27.017 15.8152C26.9932 15.7967 26.9773 15.7702 26.9694 15.7358C26.9271 15.8073 26.8609 15.8426 26.7709 15.8426C26.6915 15.8426 26.6272 15.8179 26.5786 15.7685C26.5301 15.7191 26.5054 15.6538 26.5054 15.5735V15.2153C26.5054 15.1994 26.5098 15.1871 26.5178 15.1782C26.5257 15.1694 26.5381 15.165 26.5539 15.165H26.6289C26.6448 15.165 26.6571 15.1694 26.666 15.1782C26.6748 15.1871 26.6792 15.1994 26.6792 15.2153V15.5532C26.6792 15.5947 26.6907 15.6282 26.7145 15.6538C26.7383 15.6794 26.7692 15.6917 26.8089 15.6917C26.8486 15.6917 26.883 15.6785 26.9068 15.6529C26.9306 15.6273 26.9429 15.5929 26.9429 15.5497V15.2153C26.9429 15.1994 26.9474 15.1871 26.9553 15.1782C26.9632 15.1694 26.9756 15.165 26.9915 15.165H27.0673C27.0832 15.165 27.0955 15.1694 27.1035 15.1782C27.1123 15.1871 27.1158 15.1994 27.1158 15.2153V15.6697C27.1158 15.6864 27.122 15.6944 27.1335 15.6944C27.137 15.6944 27.1423 15.6935 27.1494 15.6917C27.1564 15.69 27.1608 15.6891 27.1644 15.6882C27.1838 15.6829 27.1979 15.6926 27.2049 15.7173L27.219 15.7632C27.2287 15.7888 27.2226 15.8073 27.2023 15.8179H27.204ZM27.6989 15.7888C27.6513 15.8249 27.5895 15.8426 27.5119 15.8426C27.4616 15.8426 27.4122 15.8338 27.3655 15.8152C27.3187 15.7967 27.2808 15.7729 27.2534 15.7429C27.2279 15.7191 27.227 15.6944 27.2508 15.6697L27.2728 15.645C27.2958 15.6203 27.3196 15.6194 27.3452 15.6414C27.3963 15.6864 27.451 15.7085 27.5101 15.7085C27.5384 15.7085 27.5604 15.7023 27.5781 15.6908C27.5948 15.6794 27.6036 15.6644 27.6036 15.645C27.6036 15.6353 27.6019 15.6273 27.5975 15.6194C27.593 15.6114 27.5886 15.6053 27.5842 15.6C27.5789 15.5947 27.5719 15.5894 27.5604 15.5832C27.5498 15.577 27.541 15.5726 27.5348 15.57C27.5278 15.5673 27.5172 15.5629 27.5031 15.5576C27.4978 15.5559 27.4934 15.5541 27.4907 15.5523C27.4713 15.5453 27.4554 15.54 27.444 15.5364C27.4325 15.532 27.4175 15.5267 27.3999 15.5188C27.3822 15.5109 27.3681 15.5038 27.3575 15.4967C27.3469 15.4897 27.3355 15.4817 27.3231 15.4712C27.3108 15.4606 27.3002 15.45 27.294 15.4385C27.287 15.427 27.2817 15.4147 27.2764 15.3988C27.272 15.3838 27.2693 15.3671 27.2693 15.3494C27.2693 15.2903 27.2923 15.2427 27.3372 15.2074C27.3822 15.1721 27.4422 15.1544 27.5181 15.1544C27.5604 15.1544 27.6019 15.1615 27.6424 15.1747C27.6821 15.1888 27.7148 15.2074 27.7404 15.2312C27.7527 15.2427 27.7598 15.2532 27.7606 15.2638C27.7606 15.2744 27.7554 15.2885 27.743 15.3053L27.7245 15.3291C27.7033 15.3529 27.6795 15.3556 27.653 15.3353C27.6107 15.3009 27.5657 15.2841 27.5181 15.2841C27.4934 15.2841 27.4731 15.2894 27.4581 15.2991C27.4431 15.3088 27.436 15.3221 27.436 15.3388C27.436 15.3432 27.436 15.3476 27.4378 15.3521C27.4387 15.3565 27.4413 15.36 27.4449 15.3635C27.4475 15.3671 27.451 15.3706 27.4537 15.3741C27.4563 15.3768 27.4607 15.3803 27.4669 15.3838C27.4731 15.3873 27.4784 15.39 27.4828 15.3926C27.4872 15.3953 27.4934 15.3979 27.5022 15.4015C27.511 15.405 27.5172 15.4076 27.5225 15.4094C27.5278 15.4112 27.5357 15.4147 27.5463 15.4182C27.5578 15.4226 27.5657 15.4253 27.571 15.427C27.5966 15.4376 27.6177 15.4465 27.6345 15.4544C27.6513 15.4623 27.6698 15.4729 27.6883 15.4862C27.7068 15.4985 27.7218 15.5117 27.7324 15.5259C27.7439 15.5391 27.7527 15.5559 27.7598 15.5753C27.7668 15.5947 27.7704 15.6167 27.7704 15.6397C27.7704 15.7014 27.7465 15.7499 27.6998 15.7861L27.6989 15.7888Z" fill="#3377FF"/>
</g>
<defs>
<clipPath id="clip0_1265_53264">
<rect width="41" height="41" fill="white"/>
</clipPath>
</defs>
</svg>
