<svg width="16" height="17" viewBox="0 0 16 17" fill="none" xmlns="http://www.w3.org/2000/svg">
<g clip-path="url(#clip0_2778_69915)">
<path d="M8.85996 6.69606L6.19329 9.36273C6.13081 9.4247 6.08121 9.49844 6.04737 9.57968C6.01352 9.66092 5.99609 9.74805 5.99609 9.83606C5.99609 9.92407 6.01352 10.0112 6.04737 10.0924C6.08121 10.1737 6.13081 10.2474 6.19329 10.3094C6.25527 10.3719 6.329 10.4215 6.41024 10.4553C6.49148 10.4892 6.57862 10.5066 6.66663 10.5066C6.75463 10.5066 6.84177 10.4892 6.92301 10.4553C7.00425 10.4215 7.07798 10.3719 7.13996 10.3094L9.80663 7.64273C9.93216 7.51719 10.0027 7.34693 10.0027 7.16939C10.0027 6.99186 9.93216 6.8216 9.80663 6.69606C9.68109 6.57053 9.51083 6.5 9.33329 6.5C9.15576 6.5 8.9855 6.57053 8.85996 6.69606V6.69606Z" fill="#3377FF"/>
<path d="M8.18669 12.1013L7.33335 12.9479C6.8543 13.4416 6.21031 13.7416 5.52421 13.7908C4.83811 13.8399 4.15791 13.6348 3.61335 13.2146C3.32553 12.9774 3.09066 12.6825 2.92391 12.3489C2.75716 12.0153 2.66224 11.6505 2.64528 11.2779C2.62831 10.9053 2.68969 10.5334 2.82543 10.186C2.96118 9.83864 3.16828 9.52361 3.43335 9.26126L4.38002 8.30793C4.44251 8.24595 4.4921 8.17222 4.52595 8.09098C4.55979 8.00974 4.57722 7.9226 4.57722 7.83459C4.57722 7.74659 4.55979 7.65945 4.52595 7.57821C4.4921 7.49697 4.44251 7.42324 4.38002 7.36126C4.31805 7.29878 4.24431 7.24918 4.16307 7.21533C4.08183 7.18149 3.9947 7.16406 3.90669 7.16406C3.81868 7.16406 3.73154 7.18149 3.6503 7.21533C3.56906 7.24918 3.49533 7.29878 3.43335 7.36126L2.58669 8.21459C1.87346 8.90526 1.43508 9.83128 1.35293 10.8207C1.27079 11.8101 1.55046 12.7958 2.14002 13.5946C2.48994 14.0485 2.93245 14.4228 3.43815 14.6926C3.94385 14.9624 4.50116 15.1215 5.07307 15.1593C5.64499 15.1972 6.2184 15.1129 6.75523 14.9121C7.29206 14.7112 7.78002 14.3985 8.18669 13.9946L9.13335 13.0479C9.25889 12.9224 9.32941 12.7521 9.32941 12.5746C9.32941 12.3971 9.25889 12.2268 9.13335 12.1013C9.00782 11.9757 8.83755 11.9052 8.66002 11.9052C8.48249 11.9052 8.31222 11.9757 8.18669 12.1013V12.1013Z" fill="#3377FF"/>
<path d="M13.1069 2.64506C12.3025 2.04937 11.3088 1.76686 10.3114 1.85028C9.31401 1.93371 8.38107 2.37737 7.68686 3.0984L6.96686 3.83173C6.88457 3.89156 6.81575 3.96799 6.76487 4.0561C6.71399 4.14421 6.68218 4.24201 6.6715 4.34319C6.66081 4.44437 6.6715 4.54667 6.70285 4.64346C6.73421 4.74025 6.78554 4.82937 6.85353 4.90506C6.9155 4.96755 6.98924 5.01715 7.07048 5.05099C7.15172 5.08484 7.23885 5.10226 7.32686 5.10226C7.41487 5.10226 7.50201 5.08484 7.58324 5.05099C7.66448 5.01715 7.73822 4.96755 7.80019 4.90506L8.66686 4.03173C9.14326 3.53594 9.78649 3.23429 10.4723 3.18504C11.1581 3.13579 11.8378 3.34243 12.3802 3.76506C12.6702 4.00227 12.9069 4.2979 13.075 4.63271C13.243 4.96751 13.3387 5.33398 13.3557 5.70822C13.3727 6.08246 13.3106 6.45608 13.1735 6.80473C13.0365 7.15338 12.8275 7.46924 12.5602 7.73173L11.6135 8.68506C11.551 8.74704 11.5014 8.82077 11.4676 8.90201C11.4338 8.98325 11.4163 9.07039 11.4163 9.1584C11.4163 9.24641 11.4338 9.33354 11.4676 9.41478C11.5014 9.49602 11.551 9.56976 11.6135 9.63173C11.6755 9.69422 11.7492 9.74381 11.8305 9.77766C11.9117 9.8115 11.9989 9.82893 12.0869 9.82893C12.1749 9.82893 12.262 9.8115 12.3432 9.77766C12.4245 9.74381 12.4982 9.69422 12.5602 9.63173L13.5069 8.68506C13.9096 8.27847 14.2214 7.79093 14.4216 7.25476C14.6217 6.71858 14.7057 6.146 14.6678 5.57493C14.63 5.00387 14.4713 4.44736 14.2022 3.94226C13.9331 3.43716 13.5597 2.995 13.1069 2.64506V2.64506Z" fill="#3377FF"/>
</g>
<defs>
<clipPath id="clip0_2778_69915">
<rect width="16" height="16" fill="white" transform="translate(0 0.5)"/>
</clipPath>
</defs>
</svg>
