<svg width="16" height="17" viewBox="0 0 16 17" fill="none" xmlns="http://www.w3.org/2000/svg">
<g id="linkedin-outline" clip-path="url(#clip0_2778_69923)">
<g id="Layer 2">
<g id="linkedin">
<path id="Vector" d="M13.3333 15.166H12.22C11.8664 15.166 11.5272 15.0256 11.2772 14.7755C11.0271 14.5255 10.8867 14.1863 10.8867 13.8327V10.2527C10.8926 10.1123 10.8502 9.97411 10.7665 9.86126C10.6827 9.7484 10.5628 9.66771 10.4267 9.63271C10.3475 9.62065 10.2666 9.62572 10.1896 9.64757C10.1125 9.66942 10.0411 9.70755 9.98 9.75938C9.91715 9.81271 9.8667 9.87912 9.83215 9.95396C9.79761 10.0288 9.77981 10.1103 9.78 10.1927V13.8327C9.78 14.1863 9.63952 14.5255 9.38948 14.7755C9.13943 15.0256 8.80029 15.166 8.44667 15.166H7.33333C6.97971 15.166 6.64057 15.0256 6.39052 14.7755C6.14048 14.5255 6 14.1863 6 13.8327V10.1927C6 9.04344 6.45655 7.94124 7.2692 7.12858C8.08186 6.31592 9.18406 5.85938 10.3333 5.85938C11.4826 5.85938 12.5848 6.31592 13.3975 7.12858C14.2101 7.94124 14.6667 9.04344 14.6667 10.1927V13.8327C14.6667 14.1863 14.5262 14.5255 14.2761 14.7755C14.0261 15.0256 13.687 15.166 13.3333 15.166ZM10.3333 8.29271C10.4377 8.28612 10.5423 8.28612 10.6467 8.29271C11.0942 8.3788 11.4972 8.61974 11.7849 8.97326C12.0726 9.32678 12.2266 9.7703 12.22 10.226V13.8327H13.3333V10.1927C13.3333 9.39706 13.0173 8.634 12.4547 8.07139C11.892 7.50878 11.129 7.19271 10.3333 7.19271C9.53768 7.19271 8.77462 7.50878 8.21201 8.07139C7.6494 8.634 7.33333 9.39706 7.33333 10.1927V13.8327H8.44667V10.1927C8.44665 9.6911 8.645 9.20984 8.99844 8.8539C9.35188 8.49796 9.83174 8.29623 10.3333 8.29271Z" fill="#3377FF"/>
<path id="Vector_2" d="M4.00016 15.1693H2.66683C2.31321 15.1693 1.97407 15.0288 1.72402 14.7787C1.47397 14.5287 1.3335 14.1896 1.3335 13.8359V7.16927C1.3335 6.81565 1.47397 6.47651 1.72402 6.22646C1.97407 5.97641 2.31321 5.83594 2.66683 5.83594H4.00016C4.35378 5.83594 4.69292 5.97641 4.94297 6.22646C5.19302 6.47651 5.3335 6.81565 5.3335 7.16927V13.8359C5.3335 14.1896 5.19302 14.5287 4.94297 14.7787C4.69292 15.0288 4.35378 15.1693 4.00016 15.1693ZM2.66683 7.16927V13.8359H4.00016V7.16927H2.66683Z" fill="#3377FF"/>
<path id="Vector_3" d="M3.3335 5.16406C2.93793 5.16406 2.55125 5.04677 2.22236 4.827C1.89346 4.60724 1.63711 4.29488 1.48574 3.92943C1.33436 3.56398 1.29476 3.16184 1.37193 2.77388C1.4491 2.38592 1.63958 2.02955 1.91928 1.74985C2.19899 1.47014 2.55535 1.27966 2.94332 1.20249C3.33128 1.12532 3.73341 1.16493 4.09886 1.3163C4.46432 1.46768 4.77667 1.72402 4.99644 2.05292C5.2162 2.38182 5.3335 2.7685 5.3335 3.16406C5.3335 3.6945 5.12278 4.2032 4.74771 4.57828C4.37264 4.95335 3.86393 5.16406 3.3335 5.16406ZM3.3335 2.4974C3.20164 2.4974 3.07275 2.5365 2.96312 2.60975C2.85348 2.683 2.76804 2.78712 2.71758 2.90894C2.66712 3.03076 2.65392 3.1648 2.67964 3.29412C2.70536 3.42344 2.76886 3.54223 2.86209 3.63547C2.95533 3.7287 3.07412 3.7922 3.20344 3.81792C3.33276 3.84364 3.4668 3.83044 3.58862 3.77998C3.71044 3.72952 3.81456 3.64408 3.88781 3.53444C3.96106 3.42481 4.00016 3.29592 4.00016 3.16406C4.00016 2.98725 3.92993 2.81768 3.8049 2.69266C3.67988 2.56763 3.51031 2.4974 3.3335 2.4974Z" fill="#3377FF"/>
</g>
</g>
</g>
<defs>
<clipPath id="clip0_2778_69923">
<rect width="16" height="16" fill="white" transform="translate(0 0.5)"/>
</clipPath>
</defs>
</svg>
