<svg width="28" height="27" viewBox="0 0 28 27" fill="none" xmlns="http://www.w3.org/2000/svg">
<path d="M5.99586 18.0373C5.75037 21.0014 7.98027 23.4219 10.9467 23.4219H15.8463C19.181 23.4219 21.4722 20.7244 20.9199 17.4219C20.3368 13.9552 17.0022 11.1142 13.4937 11.1142C9.6885 11.1142 6.31296 14.2321 5.99586 18.0373ZM12.1946 8.55008C12.8728 8.55008 13.5233 8.27993 14.0028 7.79907C14.4824 7.31821 14.7518 6.66602 14.7518 5.98598C14.7518 5.30594 14.4824 4.65375 14.0028 4.17288C13.5233 3.69202 12.8728 3.42188 12.1946 3.42188C11.5164 3.42188 10.8659 3.69202 10.3864 4.17288C9.90678 4.65375 9.63736 5.30594 9.63736 5.98598C9.63736 6.66602 9.90678 7.31821 10.3864 7.79907C10.8659 8.27993 11.5164 8.55008 12.1946 8.55008ZM19.181 9.78085C19.7235 9.78085 20.2439 9.56473 20.6275 9.18004C21.0112 8.79535 21.2267 8.2736 21.2267 7.72957C21.2267 7.18553 21.0112 6.66378 20.6275 6.27909C20.2439 5.8944 19.7235 5.67829 19.181 5.67829C18.6384 5.67829 18.118 5.8944 17.7344 6.27909C17.3507 6.66378 17.1352 7.18553 17.1352 7.72957C17.1352 8.2736 17.3507 8.79535 17.7344 9.18004C18.118 9.56473 18.6384 9.78085 19.181 9.78085ZM22.9657 13.8834C23.1672 13.8834 23.3667 13.8436 23.5528 13.7663C23.739 13.689 23.9081 13.5757 24.0506 13.4328C24.1931 13.2899 24.3061 13.1204 24.3832 12.9337C24.4603 12.747 24.5 12.547 24.5 12.345C24.5 12.1429 24.4603 11.9429 24.3832 11.7562C24.3061 11.5696 24.1931 11.4 24.0506 11.2571C23.9081 11.1142 23.739 11.0009 23.5528 10.9236C23.3667 10.8463 23.1672 10.8065 22.9657 10.8065C22.5587 10.8065 22.1685 10.9686 21.8807 11.2571C21.593 11.5456 21.4313 11.9369 21.4313 12.345C21.4313 12.753 21.593 13.1443 21.8807 13.4328C22.1685 13.7213 22.5587 13.8834 22.9657 13.8834ZM5.54579 11.8321C6.08836 11.8321 6.60872 11.616 6.99238 11.2313C7.37604 10.8466 7.59157 10.3249 7.59157 9.78085C7.59157 9.23682 7.37604 8.71506 6.99238 8.33037C6.60872 7.94568 6.08836 7.72957 5.54579 7.72957C5.00321 7.72957 4.48286 7.94568 4.0992 8.33037C3.71554 8.71506 3.5 9.23682 3.5 9.78085C3.5 10.3249 3.71554 10.8466 4.0992 11.2313C4.48286 11.616 5.00321 11.8321 5.54579 11.8321Z" stroke="#8FB5F5" stroke-width="1.75" stroke-linecap="round" stroke-linejoin="round"/>
</svg>
