<svg width="40" height="40" viewBox="0 0 40 40" fill="none" xmlns="http://www.w3.org/2000/svg">
<path d="M31.6665 18.3307H21.6665V8.33073C21.6665 7.8887 21.4909 7.46478 21.1783 7.15222C20.8658 6.83966 20.4419 6.66406 19.9998 6.66406C19.5578 6.66406 19.1339 6.83966 18.8213 7.15222C18.5088 7.46478 18.3332 7.8887 18.3332 8.33073V18.3307H8.33317C7.89114 18.3307 7.46722 18.5063 7.15466 18.8189C6.8421 19.1314 6.6665 19.5554 6.6665 19.9974C6.6665 20.4394 6.8421 20.8633 7.15466 21.1759C7.46722 21.4885 7.89114 21.6641 8.33317 21.6641H18.3332V31.6641C18.3332 32.1061 18.5088 32.53 18.8213 32.8426C19.1339 33.1551 19.5578 33.3307 19.9998 33.3307C20.4419 33.3307 20.8658 33.1551 21.1783 32.8426C21.4909 32.53 21.6665 32.1061 21.6665 31.6641V21.6641H31.6665C32.1085 21.6641 32.5325 21.4885 32.845 21.1759C33.1576 20.8633 33.3332 20.4394 33.3332 19.9974C33.3332 19.5554 33.1576 19.1314 32.845 18.8189C32.5325 18.5063 32.1085 18.3307 31.6665 18.3307Z" fill="#3377FF"/>
</svg>
