<svg width="27" height="27" viewBox="0 0 27 27" fill="none" xmlns="http://www.w3.org/2000/svg">
<path d="M24.5 4.55927C24.5 3.24055 23.4272 2.16797 22.1087 2.16797C20.9537 2.16797 19.9876 2.99091 19.7655 4.08101H7.23444C7.01236 2.99091 6.0465 2.16797 4.8915 2.16797C3.57279 2.16797 2.50022 3.24055 2.50022 4.55927C2.50022 5.34065 2.87689 6.03562 3.45813 6.47232C2.87689 6.90878 2.50022 7.60375 2.50022 8.38536C2.50022 9.42362 3.16926 10.3003 4.09565 10.6302L2.58055 12.9029C2.48247 13.0498 2.47336 13.2383 2.5565 13.3936C2.63987 13.5491 2.80193 13.6462 2.97847 13.6462H4.41324V23.2114H2.97847C2.71436 23.2114 2.50022 23.4251 2.50022 23.6897C2.50022 23.9541 2.71436 24.168 2.97847 24.168H24.0217C24.2856 24.168 24.5 23.9541 24.5 23.6897C24.5 23.4251 24.2856 23.2114 24.0217 23.2114H22.587V13.6462H24.0217C24.198 13.6462 24.3603 13.5491 24.4435 13.3936C24.5266 13.2383 24.5175 13.0493 24.4197 12.9029L22.9043 10.6302C23.8307 10.3003 24.5 9.42362 24.5 8.38536C24.5 7.60375 24.1231 6.90878 23.5418 6.47232C24.1231 6.03562 24.5 5.34065 24.5 4.55927ZM5.16355 10.7526C6.19409 10.6344 7.03057 9.86591 7.23491 8.86362H10.9012L8.60545 12.6897H3.87217L5.16355 10.7526ZM16.0988 8.86362L18.3945 12.6897H13.0217L13.0218 8.86362H16.0988ZM13.0217 12.6897H8.60545L10.9012 8.86362H13.0218L13.0217 12.6897ZM10.1523 18.9071V19.3854H5.36975V17.4723H10.4797C10.2723 17.9078 10.1523 18.3933 10.1523 18.9071ZM5.36975 20.3419H10.1523V23.2114H5.36975V20.3419ZM11.1088 23.2114V18.9071C11.1088 17.5884 12.1814 16.5158 13.5001 16.5158C14.8186 16.5158 15.8914 17.5884 15.8914 18.9071V23.2114H11.1088ZM21.6305 19.3854H16.8479V18.9071C16.8479 18.3933 16.7279 17.9078 16.5203 17.4723H21.6305V19.3854ZM16.8479 23.2114V20.3419H21.6305V23.2114H16.8479ZM21.6305 16.5158H15.8381C15.2343 15.925 14.4092 15.5593 13.5001 15.5593C12.5908 15.5593 11.7655 15.925 11.1618 16.5158H5.36975V13.6462H21.6305V16.5158ZM18.3945 12.6897L16.0988 8.86362H19.7651C19.9694 9.86591 20.8054 10.634 21.8364 10.7526L23.1278 12.6897H18.3945ZM22.1087 5.99406C21.8446 5.99406 21.6305 6.20773 21.6305 6.47232C21.6305 6.73667 21.8446 6.95058 22.1087 6.95058C22.8997 6.95058 23.5435 7.59417 23.5435 8.38536C23.5435 9.17631 22.8997 9.82014 22.1087 9.82014C21.3175 9.82014 20.6739 9.17631 20.6739 8.38536C20.6739 8.12078 20.4596 7.9071 20.1957 7.9071H6.80452C6.54041 7.9071 6.32627 8.12078 6.32627 8.38536C6.32627 9.17631 5.68244 9.82014 4.8915 9.82014C4.10032 9.82014 3.45673 9.17631 3.45673 8.38536C3.45673 7.59417 4.10032 6.95058 4.8915 6.95058C5.15538 6.95058 5.36975 6.73667 5.36975 6.47232C5.36975 6.20773 5.15538 5.99406 4.8915 5.99406C4.10032 5.99406 3.45673 5.35022 3.45673 4.55927C3.45673 3.76809 4.10032 3.12449 4.8915 3.12449C5.68244 3.12449 6.32627 3.76809 6.32627 4.55927C6.32627 4.82362 6.54041 5.03753 6.80452 5.03753H20.1957C20.4596 5.03753 20.6739 4.82362 20.6739 4.55927C20.6739 3.76809 21.3175 3.12449 22.1087 3.12449C22.8997 3.12449 23.5435 3.76809 23.5435 4.55927C23.5435 5.35022 22.8997 5.99406 22.1087 5.99406Z" fill="#8FB5F5"/>
</svg>
