<svg width="22" height="19" viewBox="0 0 22 19" fill="none" xmlns="http://www.w3.org/2000/svg">
<path d="M11 0C8.2999 0.0525692 5.73087 1.17378 3.85625 3.11775C1.98164 5.06173 0.954465 7.66979 0.999986 10.37V15C0.999986 15.7911 1.23458 16.5645 1.67411 17.2223C2.11363 17.8801 2.73835 18.3928 3.46925 18.6955C4.20016 18.9983 5.00442 19.0775 5.78035 18.9231C6.55627 18.7688 7.269 18.3878 7.82841 17.8284C8.38782 17.269 8.76879 16.5563 8.92313 15.7804C9.07747 15.0044 8.99826 14.2002 8.6955 13.4693C8.39275 12.7384 7.88006 12.1136 7.22227 11.6741C6.56447 11.2346 5.79111 11 4.99999 11C4.29503 11.003 3.60398 11.1964 2.99999 11.56V10.37C2.95436 8.20017 3.77079 6.10075 5.27036 4.53183C6.76993 2.96291 8.83031 2.05245 11 2C13.1697 2.05245 15.23 2.96291 16.7296 4.53183C18.2292 6.10075 19.0456 8.20017 19 10.37V11.56C18.396 11.1964 17.7049 11.003 17 11C16.2089 11 15.4355 11.2346 14.7777 11.6741C14.1199 12.1136 13.6072 12.7384 13.3045 13.4693C13.0017 14.2002 12.9225 15.0044 13.0768 15.7804C13.2312 16.5563 13.6121 17.269 14.1716 17.8284C14.731 18.3878 15.4437 18.7688 16.2196 18.9231C16.9955 19.0775 17.7998 18.9983 18.5307 18.6955C19.2616 18.3928 19.8863 17.8801 20.3259 17.2223C20.7654 16.5645 21 15.7911 21 15V10.37C21.0455 7.66979 20.0183 5.06173 18.1437 3.11775C16.2691 1.17378 13.7001 0.0525692 11 0ZM4.99999 13C5.39555 13 5.78223 13.1173 6.11113 13.3371C6.44002 13.5568 6.69637 13.8692 6.84775 14.2346C6.99912 14.6001 7.03873 15.0022 6.96156 15.3902C6.88439 15.7781 6.6939 16.1345 6.4142 16.4142C6.13449 16.6939 5.77813 16.8844 5.39017 16.9616C5.0022 17.0387 4.60007 16.9991 4.23462 16.8478C3.86917 16.6964 3.55681 16.44 3.33705 16.1111C3.11728 15.7822 2.99999 15.3956 2.99999 15C2.99999 14.4696 3.2107 13.9609 3.58577 13.5858C3.96085 13.2107 4.46955 13 4.99999 13ZM17 17C16.6044 17 16.2177 16.8827 15.8888 16.6629C15.5599 16.4432 15.3036 16.1308 15.1522 15.7654C15.0009 15.3999 14.9612 14.9978 15.0384 14.6098C15.1156 14.2219 15.3061 13.8655 15.5858 13.5858C15.8655 13.3061 16.2218 13.1156 16.6098 13.0384C16.9978 12.9613 17.3999 13.0009 17.7654 13.1522C18.1308 13.3036 18.4432 13.56 18.6629 13.8889C18.8827 14.2178 19 14.6044 19 15C19 15.5304 18.7893 16.0391 18.4142 16.4142C18.0391 16.7893 17.5304 17 17 17Z" fill="#8FB5F5"/>
</svg>
