<svg xmlns="http://www.w3.org/2000/svg" width="154" height="61" fill="none" viewBox="0 0 154 61">
  <g clip-path="url(#a)">
    <path fill="#37F" d="M31.47 2.209c1.92.77 2.475 2.033 1.663 3.791l-.975 2.435c-.378.932-.878 1.51-1.5 1.737-.622.226-1.38.166-2.271-.18-1.162-.505-2.284-.758-3.367-.758-1.974 0-3.615.633-4.928 1.896-1.31 1.263-1.967 3.093-1.967 5.486v1.716h8.8c1.001 0 1.771.26 2.311.779.54.518.81 1.27.81 2.255V23.4c0 .984-.27 1.75-.81 2.294s-1.31.817-2.31.817h-8.8v29.885c0 .985-.27 1.763-.81 2.334-.54.572-1.298.856-2.272.856H10.22c-1 0-1.778-.286-2.332-.856-.553-.573-.83-1.35-.83-2.334v-29.89H3.162c-1 0-1.779-.273-2.332-.818-.552-.544-.83-1.31-.83-2.294v-2.033c0-.985.278-1.737.831-2.255.553-.519 1.331-.779 2.332-.779h3.893v-1.716c0-2.661.474-5.028 1.419-7.1.948-2.076 2.223-3.737 3.833-4.987A17.514 17.514 0 0 1 17.64 1.69a19.538 19.538 0 0 1 6.125-.959c3 0 5.568.493 7.704 1.477Zm46.66 53.463c.596 1.597.244 2.74-1.053 3.433-1.81 1.036-3.92 1.557-6.326 1.557-2.189 0-4.036-.578-5.537-1.737-1.5-1.156-2.506-2.812-3.023-4.968-2.675 4.468-6.881 6.702-12.611 6.702-5.056 0-9.132-1.55-12.229-4.648-3.096-3.099-4.642-7.16-4.642-12.189V21.44c0-.985.265-1.75.791-2.294.527-.544 1.292-.818 2.292-.818h4.786c1 0 1.778.274 2.332.818.553.544.83 1.31.83 2.294v21.146c0 2.607.744 4.703 2.232 6.283 1.487 1.584 3.489 2.375 6.003 2.375 2.514 0 4.703-.812 6.246-2.434 1.54-1.623 2.311-3.779 2.311-6.463V21.439c0-.985.265-1.75.791-2.294.527-.544 1.292-.818 2.292-.818h4.826c1 0 1.77.274 2.31.818.54.544.81 1.31.81 2.294v28.409c0 1.036.365 1.557 1.096 1.557.243 0 .582-.06 1.014-.18a7.21 7.21 0 0 1 .974-.219c1.244-.32 2.11.279 2.596 1.797l.892 2.872-.002-.002Zm32.554-37.264c.756.24 1.31.599 1.662 1.078.352.479.378 1.21.082 2.195l-1.096 4.07c-.487 1.755-1.567 2.38-3.245 1.875a11.498 11.498 0 0 0-3.732-.638c-2.649 0-4.725.916-6.225 2.752-1.5 1.836-2.25 4.242-2.25 7.22v19.431c0 .985-.278 1.763-.831 2.333-.553.573-1.331.857-2.332.857h-4.825c-.974 0-1.723-.286-2.25-.857-.526-.572-.791-1.348-.791-2.333V28.542c0-.877-.365-1.317-1.096-1.317-.27 0-.683.086-1.236.26-.553.175-.94.274-1.157.3-1.109.372-1.918-.227-2.432-1.797l-.73-3.432c-.54-1.677-.149-2.846 1.175-3.51 1.622-.932 3.554-1.396 5.799-1.396 2.11 0 3.946.505 5.516 1.516 1.567 1.01 2.636 2.525 3.202 4.549 2.676-4.044 6.53-6.065 11.559-6.065 1.731 0 3.475.253 5.233.758Z"/>
    <path fill="#9BF" d="M145.727 3.412h-23.032c-4.187 0-7.581 3.339-7.581 7.457 0 4.119 3.394 7.458 7.581 7.458h23.032c4.187 0 7.58-3.339 7.58-7.458 0-4.118-3.393-7.457-7.58-7.457Z"/>
    <path fill="#fff" d="M126.824 7.43a3.1 3.1 0 0 1 1.617.429 3.01 3.01 0 0 1 1.119 1.17c.265.494.4 1.038.4 1.634a3.39 3.39 0 0 1-.397 1.633 2.958 2.958 0 0 1-1.12 1.17 3.076 3.076 0 0 1-1.619.432c-.712 0-1.332-.211-1.861-.63v2.335a.472.472 0 0 1-.125.346.487.487 0 0 1-.352.123h-.725a.458.458 0 0 1-.339-.123c-.082-.08-.119-.197-.119-.346V9.067c0-.133-.055-.198-.164-.198a.735.735 0 0 0-.188.04.975.975 0 0 1-.172.044c-.166.057-.288-.034-.365-.271l-.109-.516c-.082-.252-.021-.427.178-.528a1.72 1.72 0 0 1 .873-.211c.318 0 .593.073.829.218.233.146.394.37.484.67.59-.591 1.31-.888 2.16-.888l-.005.002Zm-.249 5.04c.516 0 .934-.171 1.257-.518.32-.346.482-.776.482-1.286s-.162-.948-.482-1.297c-.32-.349-.741-.523-1.257-.523-.516 0-.908.161-1.234.484-.325.323-.487.768-.487 1.336 0 .568.162 1.002.487 1.323.326.323.736.484 1.234.484v-.003Zm5.818 1.428c-.493 0-.874-.136-1.136-.407-.267-.27-.4-.661-.4-1.174V5.573c0-.255.154-.417.464-.48l.701-.132c.161-.036.286-.008.373.08.088.09.127.22.127.389v6.793a.38.38 0 0 0 .032.177c.021.04.069.058.138.058a.647.647 0 0 0 .248-.06c.199-.068.347.02.44.27l.135.48c.047.143.061.25.037.32s-.085.13-.183.182c-.275.164-.601.245-.976.245v.003Zm8.517-.75c.09.24.037.411-.159.515-.273.157-.59.235-.953.235-.328 0-.609-.086-.831-.26-.228-.175-.379-.422-.455-.748-.403.672-1.035 1.008-1.898 1.008-.76 0-1.374-.235-1.84-.7-.465-.467-.698-1.079-.698-1.834V7.997c0-.148.039-.263.119-.346.077-.08.193-.122.344-.122h.72c.151 0 .267.041.352.122.082.08.124.198.124.346v3.182c0 .393.111.708.336.945.225.237.524.357.903.357.378 0 .707-.122.94-.367.232-.245.346-.568.346-.971V7.997c0-.148.04-.263.119-.346.077-.08.194-.122.344-.122h.726c.151 0 .267.041.346.122.08.08.122.198.122.346v4.273c0 .157.056.235.164.235a.608.608 0 0 0 .154-.026c.066-.019.114-.029.145-.034.188-.047.318.041.392.27l.135.433h.003Zm2.784.75c-.484 0-.953-.086-1.403-.258-.452-.172-.81-.398-1.074-.677-.244-.23-.252-.458-.024-.69l.214-.234c.215-.232.447-.245.696-.037.487.42 1.014.63 1.575.63.267 0 .484-.054.646-.164a.51.51 0 0 0 .185-.67.812.812 0 0 0-.127-.179 1.02 1.02 0 0 0-.227-.156 2.536 2.536 0 0 0-.249-.125 7.111 7.111 0 0 0-.302-.12l-.122-.046c-.188-.066-.336-.115-.444-.154a9.79 9.79 0 0 1-.419-.164 3.13 3.13 0 0 1-.402-.203 4.579 4.579 0 0 1-.331-.242 1.293 1.293 0 0 1-.28-.303 1.58 1.58 0 0 1-.164-.372 1.53 1.53 0 0 1-.067-.46c0-.558.215-1.003.646-1.337.432-.333 1.006-.5 1.726-.5.408 0 .802.066 1.188.196.381.13.696.307.935.531.121.104.188.208.196.31.007.101-.048.234-.173.393l-.177.221c-.204.23-.431.248-.683.06-.402-.32-.831-.479-1.286-.479-.241 0-.431.047-.574.14a.43.43 0 0 0-.196.498.3.3 0 0 0 .066.112c.029.037.058.068.085.096a.446.446 0 0 0 .127.092c.058.03.108.06.151.08.042.021.1.05.182.081.082.031.146.057.196.078.048.02.127.05.228.086a9.352 9.352 0 0 1 .844.346 4.4 4.4 0 0 1 .513.297c.18.12.321.245.424.373.106.127.19.283.259.468.069.185.104.386.104.607 0 .58-.225 1.039-.673 1.377-.452.339-1.045.508-1.786.508l-.003-.01Z"/>
  </g>
  <defs>
    <clipPath id="a">
      <path fill="#fff" d="M0 0h153.307v59.929H0z" transform="translate(0 .732)"/>
    </clipPath>
  </defs>
</svg>
