<svg width="126" height="54" viewBox="0 0 126 54" fill="none" xmlns="http://www.w3.org/2000/svg">
<g clip-path="url(#clip0_3368_7241)">
<path d="M26.2718 1.31173C27.8289 1.99651 28.28 3.11853 27.6206 4.68011L26.8302 6.84319C26.5231 7.67141 26.1171 8.18499 25.6124 8.38626C25.1077 8.58753 24.4934 8.53432 23.7696 8.22664C22.8267 7.77783 21.916 7.55342 21.0376 7.55342C19.4353 7.55342 18.1037 8.11559 17.0384 9.23761C15.9752 10.3596 15.4425 11.986 15.4425 14.1121V15.6366H22.584C23.3959 15.6366 24.0209 15.868 24.459 16.3283C24.8972 16.7887 25.1162 17.4573 25.1162 18.3318V20.1386C25.1162 21.0131 24.8972 21.6932 24.459 22.1768C24.0209 22.6603 23.3959 22.9032 22.584 22.9032H15.4425V49.4547C15.4425 50.3292 15.2235 51.0209 14.7853 51.5275C14.3472 52.0365 13.7329 52.2886 12.9425 52.2886H9.02705C8.21518 52.2886 7.58372 52.0342 7.13483 51.5275C6.68594 51.0186 6.46042 50.3292 6.46042 49.4547V22.8986H3.301C2.48913 22.8986 1.85768 22.6556 1.40879 22.1721C0.959894 21.6886 0.734375 21.0085 0.734375 20.134V18.3272C0.734375 17.4527 0.959894 16.7841 1.40879 16.3237C1.85768 15.8633 2.48913 15.632 3.301 15.632H6.46042V14.1074C6.46042 11.7431 6.84488 9.64015 7.61164 7.79865C8.38056 5.95483 9.4158 4.47884 10.7217 3.36839C12.0275 2.25793 13.4687 1.41815 15.0495 0.85135C16.6281 0.284555 18.2862 0 20.0195 0C22.4551 0 24.5385 0.437242 26.2718 1.31173Z" fill="#FBFBFB"/>
<path d="M64.1353 48.8114C64.6186 50.2295 64.3329 51.2451 63.2805 51.8605C61.8114 52.7812 60.0996 53.2439 58.1472 53.2439C56.371 53.2439 54.8718 52.7304 53.654 51.7009C52.4362 50.6737 51.6201 49.2023 51.2012 47.2868C49.0298 51.2567 45.617 53.2416 40.967 53.2416C36.8647 53.2416 33.557 51.8651 31.0441 49.1121C28.5312 46.3591 27.2769 42.7501 27.2769 38.2828V18.3964C27.2769 17.5219 27.4916 16.8418 27.919 16.3583C28.3465 15.8747 28.9672 15.6318 29.779 15.6318H33.6623C34.4741 15.6318 35.1056 15.8747 35.5545 16.3583C36.0034 16.8418 36.2289 17.5219 36.2289 18.3964V37.184C36.2289 39.4997 36.8324 41.362 38.0395 42.7663C39.2466 44.1729 40.8703 44.8762 42.9107 44.8762C44.9511 44.8762 46.7274 44.1544 47.9795 42.7131C49.2296 41.2718 49.8546 39.3563 49.8546 36.9711V18.3964C49.8546 17.5219 50.0693 16.8418 50.4968 16.3583C50.9242 15.8747 51.5449 15.6318 52.3568 15.6318H56.2722C57.0841 15.6318 57.7091 15.8747 58.1472 16.3583C58.5854 16.8418 58.8045 17.5219 58.8045 18.3964V43.6362C58.8045 44.5569 59.1009 45.0196 59.6937 45.0196C59.8913 45.0196 60.1662 44.9664 60.5163 44.86C60.8664 44.7536 61.1305 44.6888 61.3067 44.6657C62.3161 44.3811 63.0185 44.9132 63.4136 46.2619L64.1375 48.8137L64.1353 48.8114Z" fill="#FBFBFB"/>
<path d="M90.5514 15.7035C91.1657 15.9163 91.6146 16.2356 91.9002 16.6613C92.1859 17.0869 92.2074 17.737 91.9668 18.6115L91.0776 22.2274C90.6824 23.7867 89.8061 24.3419 88.4444 23.8931C87.4349 23.516 86.4255 23.3263 85.416 23.3263C83.2661 23.3263 81.5822 24.1406 80.3644 25.7716C79.1466 27.4026 78.5387 29.5402 78.5387 32.1868V49.4498C78.5387 50.3243 78.3132 51.016 77.8643 51.5227C77.4154 52.0316 76.784 52.2838 75.9721 52.2838H72.0567C71.2663 52.2838 70.6585 52.0293 70.231 51.5227C69.8036 51.0137 69.5888 50.3243 69.5888 49.4498V24.7074C69.5888 23.9278 69.2925 23.5368 68.6997 23.5368C68.4806 23.5368 68.1455 23.6132 67.6966 23.7682C67.2477 23.9232 66.9342 24.0111 66.758 24.0342C65.8581 24.3651 65.2009 23.833 64.7842 22.4379L64.1914 19.3888C63.7533 17.899 64.0711 16.8602 65.145 16.2703C66.4617 15.4421 68.0295 15.0303 69.8509 15.0303C71.5627 15.0303 73.0533 15.4791 74.3269 16.3767C75.5984 17.2743 76.4661 18.6208 76.9257 20.4183C79.0972 16.8255 82.2244 15.0303 86.3052 15.0303C87.7099 15.0303 89.1253 15.2547 90.5514 15.7035Z" fill="#FBFBFB"/>
<path d="M118.988 2.38086H100.298C96.9005 2.38086 94.1465 5.3473 94.1465 9.00659C94.1465 12.6659 96.9005 15.6323 100.298 15.6323H118.988C122.385 15.6323 125.139 12.6659 125.139 9.00659C125.139 5.3473 122.385 2.38086 118.988 2.38086Z" fill="#3377FF"/>
<path d="M103.648 5.95056C104.134 5.95056 104.57 6.0778 104.961 6.33228C105.349 6.58676 105.652 6.93377 105.869 7.37102C106.084 7.81057 106.193 8.29408 106.193 8.82386C106.193 9.35364 106.086 9.83716 105.871 10.2744C105.656 10.7116 105.356 11.0587 104.963 11.3131C104.574 11.5699 104.134 11.6972 103.648 11.6972C103.07 11.6972 102.568 11.5098 102.138 11.1373V13.2125C102.138 13.3443 102.104 13.4461 102.037 13.5202C101.969 13.5919 101.874 13.6289 101.752 13.6289H101.163C101.045 13.6289 100.953 13.5919 100.888 13.5202C100.822 13.4485 100.792 13.3443 100.792 13.2125V7.40572C100.792 7.28773 100.747 7.22989 100.658 7.22989C100.626 7.22989 100.575 7.24146 100.506 7.2646C100.439 7.28773 100.392 7.30161 100.366 7.30393C100.231 7.35482 100.132 7.27385 100.07 7.06333L99.9819 6.60526C99.9153 6.38086 99.9647 6.22586 100.126 6.13563C100.323 6.01071 100.56 5.94824 100.835 5.94824C101.092 5.94824 101.316 6.01302 101.507 6.14257C101.696 6.27213 101.827 6.47108 101.9 6.73713C102.379 6.21198 102.963 5.94824 103.652 5.94824L103.648 5.95056ZM103.446 10.4294C103.865 10.4294 104.204 10.2767 104.467 9.96902C104.726 9.66133 104.857 9.27961 104.857 8.82618C104.857 8.37274 104.726 7.98408 104.467 7.67408C104.207 7.36407 103.865 7.20907 103.446 7.20907C103.027 7.20907 102.71 7.35251 102.445 7.63938C102.181 7.92624 102.05 8.32184 102.05 8.82618C102.05 9.33051 102.181 9.71686 102.445 10.0014C102.71 10.2883 103.043 10.4317 103.446 10.4317V10.4294Z" fill="#FBFBFB"/>
<path d="M108.167 11.6976C107.768 11.6976 107.458 11.5773 107.246 11.3367C107.029 11.0961 106.921 10.7491 106.921 10.2933V4.30151C106.921 4.07479 107.046 3.93136 107.297 3.87583L107.866 3.75785C107.997 3.72546 108.098 3.75091 108.169 3.82956C108.24 3.90822 108.272 4.02389 108.272 4.17427V10.2101C108.272 10.2818 108.281 10.3327 108.298 10.3674C108.315 10.4021 108.354 10.4183 108.41 10.4183C108.47 10.4183 108.537 10.3998 108.612 10.3651C108.773 10.3049 108.893 10.3836 108.968 10.6057L109.078 11.0313C109.116 11.1586 109.127 11.2534 109.108 11.3159C109.089 11.3784 109.039 11.4316 108.96 11.4778C108.736 11.6236 108.472 11.6953 108.167 11.6953V11.6976Z" fill="#FBFBFB"/>
<path d="M115.079 11.0305C115.152 11.2434 115.109 11.396 114.95 11.4886C114.729 11.6274 114.471 11.6968 114.177 11.6968C113.91 11.6968 113.683 11.6204 113.502 11.4654C113.318 11.3104 113.195 11.0907 113.133 10.8015C112.806 11.3984 112.293 11.6968 111.593 11.6968C110.977 11.6968 110.478 11.4886 110.1 11.0745C109.722 10.6604 109.533 10.1167 109.533 9.4458V6.45451C109.533 6.32264 109.565 6.22085 109.63 6.14682C109.692 6.0751 109.787 6.03809 109.909 6.03809H110.493C110.616 6.03809 110.71 6.0751 110.779 6.14682C110.846 6.21854 110.88 6.32264 110.88 6.45451V9.28154C110.88 9.63088 110.97 9.9108 111.153 10.1213C111.335 10.3319 111.578 10.4383 111.885 10.4383C112.192 10.4383 112.459 10.3295 112.648 10.1121C112.837 9.89461 112.929 9.60774 112.929 9.24916V6.45451C112.929 6.32264 112.961 6.22085 113.026 6.14682C113.088 6.0751 113.182 6.03809 113.305 6.03809H113.893C114.016 6.03809 114.11 6.0751 114.175 6.14682C114.239 6.21854 114.273 6.32264 114.273 6.45451V10.2509C114.273 10.3897 114.319 10.4591 114.407 10.4591C114.437 10.4591 114.477 10.4522 114.531 10.436C114.585 10.4198 114.623 10.4105 114.649 10.4059C114.802 10.3642 114.907 10.4429 114.967 10.6465L115.077 11.0305H115.079Z" fill="#FBFBFB"/>
<path d="M117.338 11.6967C116.945 11.6967 116.565 11.6204 116.2 11.4677C115.833 11.315 115.543 11.1137 115.328 10.8662C115.13 10.6626 115.124 10.459 115.309 10.2531L115.483 10.0449C115.657 9.839 115.846 9.82744 116.048 10.0125C116.443 10.385 116.87 10.5724 117.325 10.5724C117.542 10.5724 117.719 10.5238 117.85 10.4266C117.981 10.3295 118.047 10.2022 118.047 10.0449C118.047 9.96624 118.03 9.89453 118 9.83206C117.968 9.76729 117.933 9.71408 117.897 9.67244C117.858 9.63079 117.798 9.58452 117.712 9.53363C117.63 9.48273 117.56 9.44572 117.51 9.42258C117.456 9.39713 117.377 9.36243 117.265 9.31616C117.222 9.29766 117.19 9.28377 117.167 9.27452C117.014 9.21668 116.894 9.17273 116.806 9.13803C116.718 9.10333 116.604 9.05474 116.466 8.99228C116.329 8.9275 116.221 8.86735 116.14 8.81183C116.058 8.75399 115.97 8.68228 115.871 8.59668C115.773 8.50877 115.697 8.42086 115.644 8.32832C115.59 8.23578 115.547 8.12474 115.511 7.9975C115.474 7.87026 115.457 7.73376 115.457 7.58801C115.457 7.09294 115.631 6.69734 115.981 6.40121C116.331 6.10509 116.797 5.95703 117.381 5.95703C117.712 5.95703 118.032 6.01487 118.346 6.13054C118.655 6.24621 118.911 6.40353 119.104 6.60248C119.203 6.69502 119.256 6.78756 119.263 6.87778C119.269 6.96801 119.224 7.086 119.123 7.22712L118.979 7.42376C118.814 7.62734 118.629 7.64354 118.425 7.47697C118.099 7.19241 117.751 7.05129 117.381 7.05129C117.186 7.05129 117.031 7.09294 116.915 7.17622C116.799 7.2595 116.741 7.37055 116.741 7.50936C116.741 7.54869 116.746 7.5857 116.756 7.61809C116.767 7.65048 116.782 7.68518 116.81 7.71757C116.834 7.74996 116.857 7.77772 116.879 7.80317C116.898 7.82861 116.932 7.85406 116.982 7.88414C117.029 7.9119 117.07 7.93735 117.104 7.95585C117.139 7.97436 117.186 7.99981 117.252 8.02757C117.319 8.05533 117.371 8.07847 117.411 8.09697C117.45 8.11548 117.514 8.14093 117.596 8.17332C117.682 8.20802 117.744 8.23347 117.787 8.24966C117.985 8.33526 118.15 8.4116 118.281 8.48101C118.412 8.55041 118.552 8.63832 118.698 8.74474C118.844 8.85116 118.958 8.9622 119.042 9.07556C119.127 9.18892 119.196 9.32773 119.252 9.49199C119.308 9.65624 119.336 9.83438 119.336 10.031C119.336 10.5469 119.153 10.9541 118.79 11.2548C118.423 11.5556 117.942 11.706 117.34 11.706L117.338 11.6967Z" fill="#FBFBFB"/>
</g>
<defs>
<clipPath id="clip0_3368_7241">
<rect width="124.405" height="53.2441" fill="white" transform="translate(0.734375)"/>
</clipPath>
</defs>
</svg>
